<?xml version="1.0" encoding="utf-8"?>
<!-- Generator: Adobe Illustrator 25.4.1, SVG Export Plug-In . SVG Version: 6.00 Build 0)  -->
<svg version="1.1" id="Layer_1" width="40.224"   height="45" xmlns="http://www.w3.org/2000/svg" xmlns:xlink="http://www.w3.org/1999/xlink" x="0px" y="0px"
	 viewBox="0 0 64 64" style="enable-background:new 0 0 64 64;" xml:space="preserve">
<style type="text/css">
	.st0{display:none;}
	.st1{display:inline;}
	.st2{fill:#01796F;}
</style>
<g class="st0">
	<path class="st1" d="M0,40.8c5.8,0,11.6,0,17.4,0c0,1.7,0,3.3,0,5c-2.8,0-5.6,0-8.5,0c3.4,6.6,12.7,14.1,25.2,13.1
		c7-0.6,12.8-3.5,17.6-8.6c4.7-5.1,7-11.2,7.1-18.2c1.7,0,3.3,0,5,0c0,4.7-1,9.2-2.9,13.4c-3,6.5-7.8,11.5-14.1,14.9
		c-3.5,1.9-7.3,3-11.3,3.4c-4,0.4-7.9,0.1-11.8-0.9c-3.8-1-7.4-2.7-10.6-5.1C10,55.4,7.3,52.5,5,49c0,3.2,0,6.1,0,9.2
		c-1.7,0-3.4,0-5,0C0,52.4,0,46.6,0,40.8z"/>
	<path class="st1" d="M64,23.2c-5.8,0-11.6,0-17.4,0c0-1.7,0-3.3,0-5c2.8,0,5.6,0,8.5,0C51.3,11.1,41.7,4.1,29.5,5.2
		C15.8,6.4,5,17.9,5,32c-1.7,0-3.3,0-5,0c0-0.7,0-1.3,0-2c0.2-1.3,0.3-2.6,0.5-3.9C3.7,9.2,19.7-2.2,36.7,0.4
		C44.9,1.6,51.6,5.6,56.8,12c0.7,0.9,1.4,1.9,2.2,2.9c0-3.1,0-6.1,0-9.2c1.7,0,3.3,0,5,0C64,11.6,64,17.4,64,23.2z"/>
	<path class="st1" d="M27,36.9c0,0.9,0,1.8,0,2.6c0.1,2.5,2,4.6,4.5,4.9c3,0.4,6-2.8,5.4-5.8c-0.2-1-0.8-1.7-1.6-2.3
		c-1.5-1-3-1.9-4.5-2.7c-1.9-1.1-3.9-2.1-5.4-3.8c-3.8-4.2-3.3-12.1,3.6-14.6c0.4-0.1,0.5-0.3,0.4-0.7c0-1.4,0-2.9,0-4.3
		c0-0.2,0-0.4,0-0.7c1.7,0,3.3,0,5,0c0,0.3,0,0.6,0,0.9c0,1.4,0,2.8,0,4.2c0,0.3,0.1,0.5,0.4,0.6c3.8,1.4,5.9,4.5,5.9,8.5
		c0,0.7,0,1.4,0,2.2c-1.7,0-3.3,0-5,0c0-0.9,0-1.8,0-2.6c-0.1-1.7-1.3-3.1-3-3.5c-1.6-0.3-3.2,0.3-4.1,1.6c-0.9,1.3-0.9,3.3,0.1,4.6
		c0.5,0.7,1.1,1.3,1.8,1.7c1.5,1,3.1,1.7,4.6,2.6c1.2,0.7,2.4,1.4,3.4,2.3c3.4,2.8,4.3,6.9,2.4,10.9c-1.2,2.6-3.2,4.4-6,5.3
		c-0.5,0.2-0.6,0.4-0.6,0.8c0,1.3,0,2.6,0,3.9c0,0.2,0,0.5,0,0.7c-1.7,0-3.3,0-4.9,0c0-0.2,0-0.4,0-0.7c0-1.4,0-2.8,0-4.1
		c0-0.4-0.1-0.5-0.5-0.7c-4.2-1.4-6.9-5.1-7-9.6c0-0.8,0-1.6,0-2.5C23.6,36.9,25.2,36.9,27,36.9z"/>
</g>
<g>
	<path class="st2" d="M15.9,44.1c-1.2-0.6-2.2-1.1-3.4-1.6c-0.6-0.3-1-0.7-1.1-1.4c-0.3-1.4-0.6-2.8-1-4.2c-0.1-0.4-0.3-0.8-0.6-1.2
		c-0.9-1.2-1.8-2.3-2.7-3.4c-0.4-0.5-0.5-1-0.3-1.6c0.3-1.5,0.7-2.9,1-4.4c0.1-0.3,0.1-0.6,0-0.9c-0.3-1.5-0.7-2.9-1-4.4
		c-0.2-0.6,0-1.2,0.4-1.7c0.9-1.1,1.9-2.3,2.7-3.4c0.2-0.3,0.4-0.7,0.5-1.1c0.4-1.4,0.7-2.8,1-4.3c0.1-0.6,0.5-1,1-1.3
		C13.8,8.6,15,8,16.3,7.4c0.5-0.2,0.9-0.6,1.2-1c0.9-1,1.7-2.1,2.5-3.2c0.5-0.6,1-0.9,1.7-0.9c0.9,0,1.8,0,2.7,0
		c1.5,0.1,2.9-0.2,4.2-1c0.8-0.5,1.6-0.8,2.5-1.2c0.6-0.3,1.1-0.3,1.7,0c1.3,0.7,2.7,1.3,4.1,2c0.3,0.1,0.6,0.2,1,0.2
		c1.4,0,2.9,0,4.3,0c0.8,0,1.3,0.3,1.8,0.9c0.9,1.1,1.8,2.2,2.7,3.3c0.2,0.3,0.5,0.5,0.8,0.7c1.3,0.7,2.6,1.3,3.9,1.9
		c0.7,0.3,1.1,0.8,1.2,1.6c0.3,1.3,0.6,2.6,0.9,4c0.1,0.4,0.3,0.9,0.6,1.3c0.8,1.1,1.8,2.2,2.7,3.3c0.4,0.5,0.5,1.1,0.4,1.7
		c-0.3,1.4-0.7,2.9-1,4.3c-0.1,0.3-0.1,0.6,0,0.9c0.3,1.5,0.7,2.9,1,4.4c0.2,0.6,0,1.2-0.4,1.7c-0.9,1.2-1.9,2.3-2.8,3.5
		c-0.2,0.3-0.4,0.7-0.5,1c-0.3,1.4-0.7,2.7-0.9,4.1c-0.2,0.8-0.5,1.3-1.3,1.6c-1.1,0.5-2.1,1-3.2,1.6c0.2,0.2,0.3,0.4,0.4,0.6
		c2.3,3,4.6,6.1,6.9,9.1c1,1.3,0.5,2.5-1,2.8c-1.6,0.3-3.3,0.7-4.9,0.9c-0.5,0.1-0.8,0.3-1.1,0.8c-0.7,1.5-1.5,3-2.2,4.6
		c-0.7,1.3-2,1.4-2.8,0.3c-3-3.9-5.9-7.8-8.9-11.7c-0.1-0.2-0.3-0.4-0.5-0.6c-1.3,1-2.6,1-3.9,0c-1.4,1.8-2.8,3.6-4.1,5.4
		c-1.8,2.3-3.5,4.6-5.3,6.9c-0.9,1.2-2.2,1.1-2.9-0.3c-0.8-1.5-1.5-3.1-2.3-4.6c-0.2-0.4-0.5-0.6-0.9-0.7c-1.7-0.3-3.3-0.6-5-0.9
		c-1.6-0.3-2-1.5-1.1-2.8c2.3-3,4.6-6.1,6.9-9.1C15.6,44.6,15.7,44.4,15.9,44.1z M39.2,46.2c0.3,0,0.6,0,0.8,0
		c1.3,0.2,2.2-0.2,2.9-1.4c1.2-2,2.9-3.4,5.1-4.1c1.3-0.4,1.9-1.3,2.1-2.6c0.2-2.1,0.9-4,2.5-5.4c1.3-1.2,1.6-2.5,1-4.1
		c-0.7-1.8-0.7-3.7,0-5.5c0.7-1.7,0.3-3-1-4.2c-1.2-1.1-2.1-2.5-2.2-4.2c0-0.4-0.2-0.8-0.2-1.2c0-1.4-0.8-2.2-2.1-2.7
		c-2.2-0.7-3.8-2.1-5-4c-0.7-1.2-1.7-1.7-3-1.4c-2.2,0.3-4.3-0.2-6.2-1.4c-1.2-0.8-2.2-0.8-3.4,0c-1.9,1.3-4,1.7-6.3,1.4
		c-1.3-0.2-2.3,0.2-3,1.4c-1.2,2-2.9,3.3-5,4c-1.4,0.4-2,1.3-2.1,2.7c-0.2,2-0.9,3.8-2.4,5.3c-0.6,0.6-1.3,1.2-1.5,2
		s0.2,1.6,0.4,2.4c0.6,1.8,0.6,3.5,0,5.2c-0.2,0.8-0.6,1.7-0.4,2.4s0.9,1.4,1.5,2c1.3,1.3,2,2.8,2.2,4.7c0.1,0.8,0.1,1.8,0.6,2.4
		c0.5,0.6,1.4,0.9,2.2,1.2c1.7,0.7,3.1,1.7,4.1,3.3c0.4,0.7,0.9,1.5,1.5,1.8c0.7,0.3,1.6,0.1,2.4,0.1c0,0,0.1,0,0.1,0
		c1.8-0.2,3.4,0.2,4.9,1.1c0.7,0.4,1.5,1,2.3,1c0.8,0,1.6-0.6,2.4-1C35.9,46.5,37.4,45.9,39.2,46.2z M44.5,59.6
		c0.7-1.3,1.3-2.5,1.8-3.8c0.3-0.6,0.7-0.9,1.4-1c1-0.2,2-0.4,2.9-0.5c0.4-0.1,0.7-0.2,1.1-0.2c-2-2.7-4-5.2-5.9-7.8
		c-0.6,0.8-1.2,1.5-1.8,2.2c-0.5,0.6-1,0.9-1.8,0.9c-1.5,0-2.9,0-4.4,0c-0.3,0-0.6,0.1-1,0.2C39.4,52.9,41.9,56.2,44.5,59.6z
		 M19.6,59.6c2.6-3.4,5.1-6.7,7.7-10.1c-0.4-0.1-0.7-0.2-1-0.2c-1.5,0-3,0-4.4,0c-0.8,0-1.3-0.3-1.7-0.8c-0.6-0.8-1.2-1.5-1.8-2.3
		c-2,2.6-3.9,5.2-6,7.8c1.4,0.3,2.7,0.5,3.9,0.7c0.8,0.1,1.3,0.5,1.6,1.2C18.3,57.1,18.9,58.3,19.6,59.6z"/>
	<path class="st2" d="M32,44.6c-10.2,0-18.6-8.4-18.6-18.6c0-10.2,8.4-18.6,18.6-18.6S50.6,15.7,50.6,26
		C50.6,36.2,42.2,44.6,32,44.6z M32,10.4c-8.6,0-15.6,7-15.6,15.5c0,8.6,7,15.5,15.5,15.5c8.6,0,15.6-7,15.6-15.6
		C47.5,17.4,40.6,10.4,32,10.4z"/>
	<path class="st2" d="M28,25.9c0.9-1.5,1.7-2.8,2.6-4.2c0.8-1.4,2.1-1.4,2.9,0s1.7,2.8,2.6,4.2c0.9-0.6,1.7-1.1,2.6-1.7
		c0.2-0.1,0.5-0.3,0.7-0.4c0.5-0.3,1.1-0.2,1.6,0.1c0.5,0.4,0.8,0.9,0.7,1.5c-0.5,2.9-1,5.7-1.4,8.6c-0.2,1-0.7,1.4-1.7,1.4
		c-4.2,0-8.5,0-12.7,0c-1,0-1.5-0.4-1.7-1.4c-0.5-2.9-1-5.8-1.5-8.6c-0.1-0.6,0.1-1.1,0.7-1.5c0.5-0.4,1.1-0.4,1.7,0
		C25.9,24.5,26.9,25.2,28,25.9z M37.9,28.3c-0.5,0.4-1,0.6-1.4,0.9c-0.9,0.5-1.7,0.4-2.3-0.5c-0.6-1-1.2-2-1.8-2.9
		c-0.1-0.2-0.2-0.4-0.4-0.6c-0.8,1.2-1.4,2.4-2.1,3.5c-0.6,0.9-1.4,1.1-2.3,0.5c-0.4-0.3-0.9-0.6-1.4-0.9c0.2,1.4,0.5,2.7,0.7,4
		c3.5,0,7,0,10.5,0C37.5,31,37.7,29.8,37.9,28.3z"/>
	<path class="st2" d="M32,19.6c-0.9,0-1.5-0.7-1.5-1.5c0-0.8,0.7-1.5,1.5-1.5c0.8,0,1.5,0.7,1.5,1.5C33.5,19,32.8,19.6,32,19.6z"/>
	<path class="st2" d="M22.8,22.2c0,0.8-0.7,1.5-1.6,1.5c-0.8,0-1.5-0.7-1.5-1.6c0-0.8,0.7-1.5,1.5-1.5
		C22.1,20.6,22.8,21.3,22.8,22.2z"/>
	<path class="st2" d="M42.7,23.7c-0.8,0-1.5-0.7-1.5-1.5c0-0.8,0.7-1.5,1.5-1.5c0.8,0,1.5,0.6,1.6,1.5C44.2,23,43.6,23.7,42.7,23.7z
		"/>
</g>
</svg>
