<?xml version="1.0" encoding="utf-8"?>
<!-- Generator: Adobe Illustrator 25.4.1, SVG Export Plug-In . SVG Version: 6.00 Build 0)  -->
<svg version="1.1" id="Component_160_1" width="40.224" height="45"   xmlns="http://www.w3.org/2000/svg" xmlns:xlink="http://www.w3.org/1999/xlink" x="0px"
	 y="0px" viewBox="0 0 80.6 80.7" style="enable-background:new 0 0 80.6 80.7;" xml:space="preserve">
<style type="text/css">
	.st0{fill:#01796F;}
</style>
<path id="Path_21981" class="st0" d="M54.7,0c12.9-0.1,23.9,9.4,25.6,22.2c1.1,8.2-1.1,15.5-6.9,21.4c-9.8,10-19.7,20-29.8,29.8
	c-7.4,7.1-16.4,8.9-26.1,5.7C8.1,76,2.3,69.1,0.5,59.3c-1.7-8.2,0.9-16.8,6.9-22.6C17.1,26.8,27,16.9,37,7.1
	C41.9,2.3,47.9,0.1,54.7,0z M13.7,67.6l0.1-0.1c-0.1-0.2-0.2-0.4-0.3-0.6c-1.6-2.5-2.3-5.5-2-8.4c0.3-4.8,2.4-9.3,5.9-12.6
	c4.6-4.6,9.1-9.1,13.7-13.7c0.2-0.2,0.4-0.3,0.7-0.6l20.9,21c5.2-5.1,10.6-10,15.6-15.3c3.8-4,4.9-9.2,3.9-14.6
	c-1.3-6.8-5.4-11.5-12-13.6c-6.2-2.2-13.2-0.5-17.8,4.3c-9.8,9.6-19.5,19.4-29.2,29.1c-5.2,5.3-6.5,13.3-3.3,20
	C10.8,64.3,12.1,66.1,13.7,67.6L13.7,67.6z" />
</svg>
