<svg xmlns="http://www.w3.org/2000/svg" width="21.606" height="20" viewBox="0 0 21.606 20">
  <path id="Path_296" data-name="Path 296" d="M252.3,369.239c-.18.2-.366.376-.551.556l-.6.589-2.2-2.2.376-.382c.066-.077.137-.148.208-.223.18-.2.365-.392.577-.583a1.514,1.514,0,0,1,1.008-.387,1.592,1.592,0,0,1,1.139.49A1.536,1.536,0,0,1,252.3,369.239Zm-4.127-.328-.409.409q-2.118,2.126-4.257,4.258a.741.741,0,0,0-.229.517c-.005.36-.005.719-.005,1.085v.867h1.264c.169,0,.338,0,.507.005a1,1,0,0,0,.769-.316q1.822-1.831,3.658-3.663l.1-.093c.109-.109.218-.212.322-.311l.529-.5Zm-2.161-.763a8.409,8.409,0,0,0-9.111-2.884c-2.965.908-5.833,4.17-5.793,6.6l.017.787h5.825c1.446,0,2.9,0,4.347.017a2.584,2.584,0,0,0,2.081-.868c.57-.618,1.2-1.237,1.8-1.823.257-.258.514-.507.771-.763l.507-.5Zm-6.613-12.1h-.016a3.881,3.881,0,1,0,.016,0Z" transform="translate(-231.105 -356.052)" fill="#484848"/>
</svg>
