<svg xmlns="http://www.w3.org/2000/svg" width="21.993" height="22" viewBox="0 0 21.993 22">
  <path id="Path_21972" data-name="Path 21972" d="M163.463,311.119a.565.565,0,0,1,.377.622c0,1.911,0,3.822-.007,5.733,0,.212.048.3.266.363a7.678,7.678,0,0,1,3.914,2.541.917.917,0,0,1,.058.084l-.718.577c-.052-.068-.1-.132-.147-.191a6.761,6.761,0,0,0-3.706-2.22c-.512-.117-.585-.217-.585-.754v-5.828h-2.289v.26q0,2.888,0,5.776c0,.4-.1.511-.468.637-.4.135-.788.293-1.183.441a.266.266,0,0,0-.189.291c.008.938,0,1.876.007,2.813a.581.581,0,0,0,.085.3q1.952,3.031,3.912,6.056a.25.25,0,0,0,.123.107v-5.075a1.981,1.981,0,0,1,.372-1.25,1.843,1.843,0,0,1,1.544-.743q3.489-.006,6.978,0a1.18,1.18,0,0,1,1.19.891v.43a2.05,2.05,0,0,1-.612.86c-.2.191-.39.4-.6.588a.5.5,0,0,0-.171.411q.008,2.985,0,5.971a2.281,2.281,0,0,1-2.218,2.3c-1.425.019-2.85.011-4.275,0a2.036,2.036,0,0,1-1.339-.5c-.138-.119-.268-.248-.4-.376a2.191,2.191,0,0,1-1.764.879q-4.211.013-8.42,0a2.243,2.243,0,0,1-2.069-1.51,2.287,2.287,0,0,1,.245-2q2.054-3.483,4.1-6.975a.834.834,0,0,0,.11-.4c.007-1.825,0-3.652,0-5.477,0-.432.163-.593.6-.6.594,0,1.188,0,1.782,0,.748,0,.82.072.82.825v1.241c.259-.1.48-.2.711-.262.169-.048.217-.126.216-.3-.007-1.976,0-3.952-.007-5.928a.57.57,0,0,1,.359-.614ZM156.5,317.09v.24c0,1.682,0,3.366,0,5.048a1.106,1.106,0,0,1-.168.606c-.319.526-.627,1.059-.938,1.589q-1.621,2.756-3.241,5.511a1.347,1.347,0,0,0,1.187,2.114q4.08.008,8.162,0a1.392,1.392,0,0,0,.886-.271,1.316,1.316,0,0,0,.259-1.838q-2.288-3.542-4.584-7.08a1.15,1.15,0,0,1-.194-.662c.007-1.668,0-3.337,0-5v-.254Zm7.335,10.1c0,1.088,0,2.177,0,3.265a2.965,2.965,0,0,0,.044.683,1.34,1.34,0,0,0,1.384,1.055q2,.015,3.994,0a1.654,1.654,0,0,0,.661-.145,1.369,1.369,0,0,0,.787-1.363c0-2.019,0-4.037-.006-6.056a.9.9,0,0,1,.3-.719c.336-.311.656-.64.971-.971a.28.28,0,0,0,.072-.238c-.024-.061-.14-.088-.22-.121a.287.287,0,0,0-.106,0h-6.829a.931.931,0,0,0-1.057,1.052Q163.837,325.412,163.838,327.194Zm6.643-6.454a1.6,1.6,0,1,1,1.6-1.6A1.617,1.617,0,0,1,170.481,320.741Zm-.009-2.283a.682.682,0,0,0-.679.683.7.7,0,0,0,.683.685.684.684,0,0,0,.685-.7A.672.672,0,0,0,170.471,318.458Zm-.223-2.749a1.373,1.373,0,1,1-1.355-1.375A1.385,1.385,0,0,1,170.248,315.708Zm-1.364.443a.455.455,0,0,0,.445-.454.453.453,0,1,0-.906.019A.452.452,0,0,0,168.884,316.151Zm-8.712,6.29a.191.191,0,0,0,.133.13,5.254,5.254,0,0,0,.642,0c.049,0,.133-.068.135-.107.012-.261.006-.523.006-.8h-.921C160.166,321.944,160.159,322.193,160.173,322.442Zm-.439-1.714h.881v-.889h-.881ZM161.1,323.5v.883H162V323.5Zm-8.493-5.512a1.6,1.6,0,1,1,1.6-1.6A1.618,1.618,0,0,1,152.607,317.991Zm.682-1.6a.672.672,0,0,0-.674-.684.684.684,0,0,0-.694.689.7.7,0,0,0,.689.679A.684.684,0,0,0,153.289,316.391Zm2.749-3.433a1.371,1.371,0,1,1-1.351-1.374A1.376,1.376,0,0,1,156.038,312.958Zm-1.36.444a.458.458,0,0,0,.447-.452.472.472,0,0,0-.452-.453.457.457,0,0,0-.452.469A.444.444,0,0,0,154.678,313.4Zm-.463,9.157c0-.276,0-.531,0-.787,0-.039-.057-.108-.09-.109-.268-.009-.536-.006-.815-.006v.9Zm-2.285-3.181v.885h.9v-.885Zm4.842,4.676q-1.914,3.251-3.824,6.506a.557.557,0,0,0-.067.324c.031.268.212.391.545.392.972,0,1.946,0,2.918,0,.049,0,.1-.007.149-.011v-.905h-2.369l3.482-5.919-.773-.456A.609.609,0,0,0,156.771,324.055Zm3.528,5.855a.193.193,0,0,0-.128.135,5.441,5.441,0,0,0,0,.642c0,.048.069.131.109.133.262.012.523.007.8.007V329.9C160.8,329.9,160.548,329.9,160.3,329.91Zm-1.5-.935h.895v-.886H158.8Zm8.713,2.3h1.644c.486,0,.628-.141.629-.622q0-3,0-6.008c0-.076-.007-.151-.012-.226h-.908v5.945h-1.352Zm-2.755-6.859v.895h1.354v-.895Zm1.351,3.676h-1.347v.887h1.347Zm-1.347,2.718h.888v-.9h-.888Zm0-4.558v.887h.889v-.887Z" transform="translate(-151.006 -311.119)" fill="#484848"/>
</svg>
