<svg xmlns="http://www.w3.org/2000/svg"  width="38" height="45.824" viewBox="0 0 38 45.824">
  <path id="Path_21728" data-name="Path 21728" d="M56.118,733.919c-.227-.087-.458-.163-.679-.263A2.926,2.926,0,0,1,54,729.679c.03-.064.062-.127.123-.25-.187-.011-.336-.026-.485-.026-1.637,0-3.274.017-4.911-.006A3.285,3.285,0,0,1,45.7,724.97a3.651,3.651,0,0,1,.959-1.372c2.03-1.833,4.1-3.624,6.162-5.418a.543.543,0,0,0,.194-.635q-2.9-12.233-5.776-24.473c-.092-.39-.259-.47-.615-.464-1.2.019-2.4.007-3.607.007h-.5V689.94c.15-.008.29-.021.431-.021q2.521,0,5.042,0a1.375,1.375,0,0,1,1.528,1.189c.688,2.687,1.38,5.374,2.054,8.065a.476.476,0,0,0,.476.437c.876.108,1.744.281,2.62.389.293.036.371.193.462.424a10.441,10.441,0,0,0,18.123,2.827.714.714,0,0,1,.758-.326c1.457.239,2.918.453,4.376.683.5.078.617.219.608.725q-.132,7.243-.271,14.485c-.01.534-.207.693-.822.693q-10.909,0-21.818-.007a1.4,1.4,0,0,0-1.008.371c-2.119,1.864-4.258,3.705-6.39,5.554-.1.086-.235.159-.281.269a1.063,1.063,0,0,0-.143.633c.045.14.327.221.518.284a1.444,1.444,0,0,0,.432.009H80.512v2.762H75.454a9.652,9.652,0,0,1,.321,1.347,2.882,2.882,0,0,1-2.159,3.09c-.1.027-.189.064-.283.1h-.956c-.148-.052-.3-.107-.444-.157a2.935,2.935,0,0,1-1.881-3.65c.068-.227.172-.442.271-.69H59.175c.036.094.057.16.086.223a2.928,2.928,0,0,1-1.91,4.186,1.282,1.282,0,0,0-.189.088Zm8.837-45.824a8.252,8.252,0,1,0,8.168,8.252A8.21,8.21,0,0,0,64.955,688.095Zm.856,8.889L60.5,698.83a.855.855,0,0,1-.285.048.875.875,0,0,1-.827-.6.886.886,0,0,1,.542-1.123L64.1,695.71l.076-2.627a.875.875,0,1,1,1.749.052Z" transform="translate(-42.512 -688.095)" fill="#01796f"/>
</svg>
