<svg xmlns="http://www.w3.org/2000/svg"  width="38.523" height="45.115" viewBox="0 0 38.523 45.115">
  <path id="Path_21723" data-name="Path 21723" d="M56.306,835.2c-.23-.088-.465-.164-.689-.264a2.923,2.923,0,0,1-1.456-3.99c.031-.064.063-.128.125-.251-.19-.011-.34-.026-.491-.026-1.66,0-3.32.017-4.979-.006a3.3,3.3,0,0,1-3.076-4.442,3.674,3.674,0,0,1,.972-1.377c2.058-1.839,4.154-3.636,6.247-5.436a.542.542,0,0,0,.2-.637Q50.211,806.5,47.3,794.215c-.093-.391-.263-.47-.623-.465-1.219.019-2.438.007-3.657.007h-.507v-2.684c.152-.008.294-.021.437-.021q2.556,0,5.111,0a1.391,1.391,0,0,1,1.549,1.194c.7,2.7,1.4,5.392,2.082,8.092a.48.48,0,0,0,.482.439c.888.109,1.768.282,2.656.39.3.036.376.193.468.425A10.632,10.632,0,0,0,73.67,804.43a.727.727,0,0,1,.768-.328c1.477.239,2.958.455,4.437.685.5.079.625.22.617.727q-.134,7.268-.274,14.534c-.011.536-.21.7-.833.7q-11.059,0-22.119-.007a1.423,1.423,0,0,0-1.022.372c-2.149,1.87-4.317,3.718-6.478,5.573-.1.086-.238.159-.285.27a1.059,1.059,0,0,0-.145.636c.046.14.331.222.525.285a1.5,1.5,0,0,0,.438.009H81.035v2.772H75.908a9.6,9.6,0,0,1,.325,1.352,2.894,2.894,0,0,1-2.189,3.1c-.1.027-.192.064-.287.1h-.969c-.15-.053-.3-.107-.45-.157a2.939,2.939,0,0,1-1.907-3.662c.069-.228.174-.445.274-.693H59.4c.037.093.057.16.087.223a2.931,2.931,0,0,1-1.936,4.2,1.31,1.31,0,0,0-.192.088Zm16.833-37.021a7.877,7.877,0,1,0-7.925,7.634A7.882,7.882,0,0,0,73.139,798.182Zm-10.68-1.12,1.384,1.634,4.135-4.4,1.993,1.881-2.151,2.293q-1.461,1.556-2.923,3.111a1.4,1.4,0,0,1-2.271-.064c-.745-.885-1.49-1.772-2.259-2.688Z" transform="translate(-42.512 -790.088)" fill="#01796f"/>
</svg>
