<svg xmlns="http://www.w3.org/2000/svg" width="22.501" height="22.5" viewBox="0 0 22.501 22.5">
  <path id="prescription" d="M10.251,6.543H9.109V5.4a.43.43,0,1,0-.859,0V6.543H7.108a.43.43,0,0,0,0,.859H8.25V8.544a.43.43,0,0,0,.859,0V7.4h1.142a.43.43,0,1,0,0-.859ZM8.679,3.191A3.781,3.781,0,1,0,12.46,6.973,3.786,3.786,0,0,0,8.679,3.191Zm0,6.7A2.922,2.922,0,1,1,11.6,6.972,2.925,2.925,0,0,1,8.679,9.894ZM17.233,3.96,13.409.136a.429.429,0,0,0-.3-.126H1.289A1.291,1.291,0,0,0,0,1.3V20.72a1.291,1.291,0,0,0,1.289,1.289H9.5a.43.43,0,1,0,0-.859H1.289a.43.43,0,0,1-.43-.43V1.3a.43.43,0,0,1,.43-.43H12.675V3.4a1.291,1.291,0,0,0,1.289,1.289H16.5v7.648a.43.43,0,0,0,.859,0V4.264A.43.43,0,0,0,17.233,3.96Zm-3.269-.126a.43.43,0,0,1-.43-.43V1.477l2.357,2.357Zm.215,8.207H6.717a.43.43,0,0,0,0,.859h7.462a.43.43,0,1,0,0-.859Zm-9.6,0H3.18a.43.43,0,0,0,0,.859h1.4a.43.43,0,1,0,0-.859ZM11,14.447H6.717a.43.43,0,1,0,0,.859H11a.43.43,0,0,0,0-.859Zm-6.42,0H3.18a.43.43,0,0,0,0,.859h1.4a.43.43,0,1,0,0-.859Zm2.441,2.532a.429.429,0,1,0,.126.3A.432.432,0,0,0,7.021,16.979ZM4.58,16.853H3.18a.43.43,0,0,0,0,.859h1.4a.43.43,0,1,0,0-.859Zm14.757-.172a2.645,2.645,0,0,0-.371.027,2.664,2.664,0,0,0-4.435-2.649l-3.4,3.4A2.664,2.664,0,0,0,14.9,21.229l1.78-1.78a2.664,2.664,0,1,0,2.661-2.768Zm-5.049,3.94a1.8,1.8,0,0,1-2.552-2.552l1.4-1.4,2.552,2.552Zm2.005-2L13.74,16.064l1.4-1.4a1.8,1.8,0,1,1,2.552,2.552ZM18.907,21.1a1.8,1.8,0,0,1,0-3.505Zm.859,0V17.593a1.8,1.8,0,0,1,0,3.505Z" transform="translate(0.25 0.24)" fill="#484848" stroke="#484848" stroke-width="0.5"/>
</svg>
