<svg id="Component_123_1" data-name="Component 123 – 1" xmlns="http://www.w3.org/2000/svg" width="40" height="45.249" viewBox="0 0 53 45.249">
  <path id="Path_21722" data-name="Path 21722" d="M317.363,833.951c-1.829,2.091-4.316,2.831-7.022,3.44,0-.56.037-1.075-.006-1.583-.157-1.842-.245-3.7-.536-5.518a10.762,10.762,0,0,0-3.98-7.209c-.76-.58-1.605-1.046-2.374-1.54a17.609,17.609,0,0,0,2.218-.489,10.269,10.269,0,0,0,1.6-.91c.139-.079.308-.209.437-.183a22.411,22.411,0,0,1,5.191,1.5,6.642,6.642,0,0,1,3.926,5.12c.229,1.253.3,2.536.442,3.805.043.392.069.786.1,1.179ZM295.22,844.12a27.8,27.8,0,0,0,8.547-1.846,11.27,11.27,0,0,0,3.5-2.166,2.034,2.034,0,0,0,.745-1.825c-.076-.634-.043-1.279-.068-1.919a35.461,35.461,0,0,0-.6-6.189,8.341,8.341,0,0,0-4.767-6.192,26.5,26.5,0,0,0-6.477-1.879.485.485,0,0,0-.371.089,6.6,6.6,0,0,1-4.527,1.734,6.994,6.994,0,0,1-5.038-1.62.828.828,0,0,0-.63-.174c-1.508.35-3.027.671-4.5,1.128a8.685,8.685,0,0,0-6.693,7.42,57.937,57.937,0,0,0-.58,7.5,2.311,2.311,0,0,0,.906,2.069c.119.1.233.206.355.3a15.087,15.087,0,0,0,5.781,2.648,42.476,42.476,0,0,0,10.094,1.13C292.33,844.262,293.779,844.235,295.22,844.12Zm4.228-38.949a6.885,6.885,0,0,0-5.523-5.758,14.2,14.2,0,0,0-5.391-.143,6.934,6.934,0,0,0-6.018,5.114,18.847,18.847,0,0,0-.608,7.1,11.436,11.436,0,0,0,3.075,7.038,7.8,7.8,0,0,0,11.364.418c2.665-2.507,3.619-5.712,3.694-9.3C299.85,808.144,299.756,806.635,299.448,805.171Zm-23.214-3.73a5.531,5.531,0,0,0-4.706,4.108,14.47,14.47,0,0,0-.373,6.727,8.364,8.364,0,0,0,4.147,6.143,6.031,6.031,0,0,0,6.311-.164c-3-5.467-2.753-11.012-.683-16.687A11.543,11.543,0,0,0,276.234,801.441ZM305,819a7.412,7.412,0,0,0,4.988-4.671,13.325,13.325,0,0,0,.12-9.146,5.071,5.071,0,0,0-2.925-3.244,8.792,8.792,0,0,0-3.989-.658c-.809.034-1.616.157-2.377.236,2.079,5.727,2.333,11.255-.666,16.728A6,6,0,0,0,305,819Zm-33.571,16.56a32.5,32.5,0,0,1,.718-6.229,10.639,10.639,0,0,1,5.84-7.55c.14-.069.275-.151.512-.282-.2-.027-.269-.041-.337-.044a5.678,5.678,0,0,1-3.787-1.422.536.536,0,0,0-.421-.058c-1.2.286-2.421.538-3.6.9-2.829.855-4.875,2.568-5.376,5.616-.326,1.989-.321,4.03-.585,6.033a2.62,2.62,0,0,0,1.43,2.726c.043.029.088.054.132.082a15.253,15.253,0,0,0,5.476,2.052C271.43,836.733,271.412,836.148,271.433,835.565Z" transform="translate(-264.363 -799.079)" fill="#01796f" opacity="0.4"/>
</svg>
