<svg xmlns="http://www.w3.org/2000/svg" width="15.999" height="20" viewBox="0 0 19.999 20">
  <path id="Path_293" data-name="Path 293" d="M348.084,356.064v9.179a.148.148,0,0,0-.02.033,1.477,1.477,0,0,1-1.608,1.207q-2.966,0-5.933,0a2.106,2.106,0,0,1-.5-.052,1.457,1.457,0,0,1-1.1-1.513q0-4.266,0-8.533c0-.058,0-.117.005-.176a1.445,1.445,0,0,1,1.417-1.388q3.163-.014,6.324,0a1.434,1.434,0,0,1,1.346,1.008C348.037,355.9,348.06,355.985,348.084,356.064Zm-11.663,18.6a1.459,1.459,0,0,0,.839-1.407V367.15c0-.813,0-1.628,0-2.441a1.47,1.47,0,0,0-1.563-1.566q-3.016,0-6.032,0a1.468,1.468,0,0,0-1.569,1.577c0,2.779.017,5.558-.01,8.337a1.588,1.588,0,0,0,1.259,1.753h6.676A3.271,3.271,0,0,0,336.421,374.669Zm10.414.143a1.463,1.463,0,0,0,.938-.572,4.9,4.9,0,0,0,.312-.678v-4.18a.251.251,0,0,1-.027-.051,1.462,1.462,0,0,0-1.542-1.188c-.533,0-1.067,0-1.6,0-1.5,0-2.992,0-4.489,0a1.442,1.442,0,0,0-1.5,1.446c-.017,1.256-.013,2.513,0,3.768a1.4,1.4,0,0,0,.818,1.3,3.563,3.563,0,0,0,.417.154Zm-17.209-20a1.458,1.458,0,0,0-1.531,1.533q0,1.8,0,3.592a1.46,1.46,0,0,0,1.524,1.543q3.054.006,6.107,0a1.463,1.463,0,0,0,1.533-1.536q.006-1.8,0-3.592a1.462,1.462,0,0,0-1.547-1.54q-1.511,0-3.024,0Q331.157,354.815,329.626,354.815Z" transform="translate(-328.085 -354.812)" fill="currentColor"/>
</svg>
