<svg xmlns="http://www.w3.org/2000/svg" width="40" height="35.38" viewBox="0 0 49 35.38">
  <path id="Path_21724" data-name="Path 21724" d="M154.668,752.114a2.686,2.686,0,0,1-.633-2.744,2.4,2.4,0,0,1,4.149-.93q.6.642,1.2,1.281V732.764a2.593,2.593,0,0,1,2.427-2.777,2.38,2.38,0,0,1,.864.166,2.55,2.55,0,0,1,1.626,2.233,4.331,4.331,0,0,1,.014.539v16.8l.788-.845c.162-.175.325-.35.493-.52a2.494,2.494,0,0,1,1.765-.769,2.352,2.352,0,0,1,1.734.783,2.706,2.706,0,0,1-.011,3.678c-.559.616-1.13,1.218-1.7,1.822l-3.724,3.971a2.523,2.523,0,0,1-1.825.853,2.411,2.411,0,0,1-1.75-.8q-2.163-2.294-4.316-4.6Zm31.681.757a3.428,3.428,0,0,0-.077-.8,2.5,2.5,0,0,0-2.389-2,2.307,2.307,0,0,0-.266.016,2.544,2.544,0,0,0-2.194,2.615q-.011,2.765-.005,5.53v1.873H142.283v-7.243a2.483,2.483,0,1,0-4.929,0q0,4.839,0,9.677a2.546,2.546,0,0,0,2.664,2.816h43.667a2.546,2.546,0,0,0,2.664-2.815Q186.354,757.711,186.349,752.871Z" transform="translate(-137.352 -729.987)" fill="#01796f" opacity="0.4"/>
</svg>
