<svg id="Component_122_1"  data-name="Component 122 – 1" xmlns="http://www.w3.org/2000/svg" width="40.224" height="45" viewBox="0 0 47.224 45">
  <path id="Path_21721" data-name="Path 21721" d="M167.489,812.2c.737.009,1.474.022,2.211.023q4.126,0,8.252,0h.575v29.214H167.489Zm32.34-.64a18.9,18.9,0,0,0,1.063-5.843,8.332,8.332,0,0,0-7.837-8.341,2.05,2.05,0,0,0-2.4,2.235c0,1.383-.045,2.768.016,4.148a2.614,2.614,0,0,1-.717,1.99c-2.782,3.1-5.542,6.216-8.321,9.317a1.11,1.11,0,0,0-.314.815c.013,2.32.007,4.641.007,6.962q0,8.16-.008,16.321a.542.542,0,0,0,.424.628c.771.255,1.535.538,2.286.848a23.368,23.368,0,0,0,9.442,1.725c2.812-.049,5.625-.01,8.437-.01,1.691,0,3.381.018,5.071,0a4.688,4.688,0,0,0,4.694-5,4.856,4.856,0,0,0-.906-2.5,11597.89,11597.89,0,0,0,2.032-13.229c.112-.1.229-.2.339-.3a4.543,4.543,0,0,0,1.419-4.643,4.7,4.7,0,0,0-4.7-3.544c-3.289-.009-6.577,0-9.866,0h-.619C199.54,812.556,199.688,812.058,199.829,811.558Z" transform="translate(-167.489 -797.366)" fill="#01796f" opacity="0.4"/>
</svg>
