<svg id="Component_127_1"  data-name="Component 127 – 1" xmlns="http://www.w3.org/2000/svg" width="45.218" height="45" viewBox="0 0 45.218 45">
  <path id="Path_21726" data-name="Path 21726" d="M122.883,627.448c0-3.429.015-6.858-.011-10.287a1.531,1.531,0,0,1,.962-1.58q10.42-5.164,20.81-10.39a1.685,1.685,0,0,1,1.672-.005q10.391,5.215,20.8,10.387a1.545,1.545,0,0,1,.97,1.577q-.03,10.311,0,20.622a1.578,1.578,0,0,1-1,1.606q-10.394,5.155-20.762,10.364a1.687,1.687,0,0,1-1.672,0q-10.458-5.251-20.937-10.458a1.353,1.353,0,0,1-.838-1.363C122.892,634.434,122.883,630.941,122.883,627.448Zm2.072-8.779s1.337,18.184,1.564,18.3c6.221,3.1,17.734,10.262,12.222,8.7,0,0-11.225-6.144-11.517-6.289-6.224-3.1-3.391-21.462-3.391-21.462Zm27.174,15.976c.219-.1.467-.545.606-.614,6.191-3.09,7.3-2.657,7.3-3.007-.011-6.072,5.971-6.04,5.969-12.113,0-.152,1.089,6.331,1.079,6.13-.162.069.677.707-.6,1.329-.284.138-.891.436-.889.757.015,2.548-4.2-.937-4.205,1.61,0,.833,0,1.666,0,2.5a1.031,1.031,0,0,1-1.688.859c-.273-.2-.548-.392-.822-.587-.608-.433.633,2.974,0,2.523-.217.31-1.1-1.642-1.278-1.381-1.122,1.619-3.394,1.615-4.521,3.23a1.045,1.045,0,0,1-1.494.382,1.127,1.127,0,0,1-.453-1.049q.008-4.423,0-8.844c0-.167,1.61,1.522,1.6,1.294-1.422.707.763,2.707-.606,3.36-.359.172,0,1.626,0,2.01.012,6.04.606-5.043.606,1ZM133.2,613.238c.127.077.18.114.236.142q9.344,4.669,18.693,9.324a.785.785,0,0,0,.606-.017c1.755-.857,5.424-2.711,5.549-2.782-.11-.065-.174-.11-.243-.144q-9.344-4.669-18.693-9.324a.788.788,0,0,0-.607.02c-1.741.849-3.47,1.721-5.2,2.587C133.443,613.092,133.352,613.149,133.2,613.238Zm-6.714,3.592q9.368,4.681,18.742,9.352a37.933,37.933,0,0,0,4.479-1.971c.107-.054.206-.122.359-.213-.209-.113-2.505,7.1-2.659,7.027-1.433-.716-4.559-3.939-5.992-4.654-4.686-2.34-7.221.637-11.911-1.7C129.353,624.6,126.432,616.8,126.486,616.83Zm37.234-2.054c-.287-.149.547,1.681.362,1.588l-16.675-8.326c-.63-.314-1.263-.87-1.894-.867a5.28,5.28,0,0,0-1.942.865c-.714.351-1.425.712-2.156,1.078.066.057-1.5-.59,0-1.076s-.3-4,5.992-.867c.114.057,14.292,6.26,14.395,6.209C163.093,612.751,162.342,615.465,163.72,614.776Zm-10.538,17.318c.172-.229.269-.35.357-.477q1.123-1.618,2.243-3.236c.533-.767,1.045-.851,1.819-.3.556.393,1.111.788,1.713,1.215v-7.515c-.044-.01-.063-.021-.074-.015-1.949.967-3.9,1.932-5.841,2.912-.107.054-.209.366-.209.366S153.182,629.65,153.182,632.094Z" transform="translate(-122.872 -604.968)" fill="#01796f"/>
</svg>
