<svg xmlns="http://www.w3.org/2000/svg" width="40.327" height="46.333" viewBox="0 0 46.327 46.333">
  <g id="Component_120_1" data-name="Component 120 – 1" transform="translate(0.5 0.5)" opacity="0.4">
    <path id="Subtraction_2" data-name="Subtraction 2" d="M6055.378,5797.995h-9.648v-34.678l-.126-.008h-.02c-.1-.007-.2-.013-.3-.013h-2.012q-.72,0-1.44,0a1.317,1.317,0,0,1-1.331-.9,1.3,1.3,0,0,1,.46-1.5c3.461-2.972,6.449-5.534,9.134-7.832a1.469,1.469,0,0,1,.949-.4,1.438,1.438,0,0,1,.928.393c2.773,2.369,5.773,4.939,9.169,7.859a1.3,1.3,0,0,1,.433,1.509,1.333,1.333,0,0,1-1.351.871c-.528,0-1.057,0-1.591,0h-2.282v.479q0,.472,0,.944v.087c0,.823,0,1.673.007,2.509a.51.51,0,0,1-.309.509c-5.27,3.077-7.833,7.6-7.616,13.45.2,5.265,2.739,9.357,7.558,12.162a.6.6,0,0,1,.369.608c-.025.727-.043,1.439,0,2.168a1.635,1.635,0,0,1-.981,1.782Zm-12.3,0h-5.311v-25c0-1.167.472-1.644,1.628-1.645h3.682v26.644Zm-8.055,0h-4.336a1.691,1.691,0,0,1-.986-1.781c.02-3.122.017-6.276.014-9.326q0-1.661,0-3.322c0-1.1.491-1.591,1.591-1.591h3.719v16.02Zm27.9-5.4c-.167,0-.335,0-.5-.01a11.786,11.786,0,0,1-7.228-2.9,12.165,12.165,0,0,1-3.94-6.818,11.62,11.62,0,0,1,.112-4.979,12.113,12.113,0,0,1,5.654-7.587,11.632,11.632,0,0,1,4.742-1.532c.409-.04.822-.061,1.226-.061a12.037,12.037,0,0,1,11.928,10.271c.025.158.053.318.08.473v.009l.019.106.018.106v1.947c-.044.218-.084.441-.123.657l-.01.056c-.087.491-.178,1-.315,1.49a11.854,11.854,0,0,1-4.342,6.343A12.107,12.107,0,0,1,6062.917,5792.6Zm-5.395-13.024.008.009.008.01.011.013.135.143c.356.372.724.756,1.094,1.139a.1.1,0,0,0,.07.029h1.3v.067q0,2.152,0,4.3a.383.383,0,0,0,.014.1,1.746,1.746,0,0,0,.29.571,4.023,4.023,0,0,0,1.52,1.244,2.258,2.258,0,0,0,.927.232h.078a4.953,4.953,0,0,0,1.083-.119,4.808,4.808,0,0,0,1.767-.791,6.261,6.261,0,0,0,1.016-.922,6.424,6.424,0,0,0,1.111-1.646,4.43,4.43,0,0,0,.367-2.549,3.2,3.2,0,0,0-.959-1.84,2,2,0,0,0-.947-.524,2.263,2.263,0,0,0-.523-.059,3.011,3.011,0,0,0-.481.041,1.5,1.5,0,0,0-.683.266,1.539,1.539,0,0,0-.577.9,2.393,2.393,0,0,0,.107,1.424,1.315,1.315,0,0,0,.755.773,2.053,2.053,0,0,0,.791.152c.069,0,.139,0,.209-.009s.146-.01.209-.017l0,.049v.009c-.005.06-.011.117-.019.172a2.9,2.9,0,0,1-.389,1.093,5.169,5.169,0,0,1-1.568,1.636,2.28,2.28,0,0,1-1.3.429,2.127,2.127,0,0,1-.313-.023,1.265,1.265,0,0,1-.567-.2,1.143,1.143,0,0,1-.514-.976q0-.933,0-1.867v-1.867c0-.017,0-.034,0-.055h2.09l-.01-.012,0,0,0,0,0,0-.363-.371q-.451-.461-.9-.922a.092.092,0,0,0-.061-.024c-.23,0-.459,0-.687,0h-.058v-1.4q0-.664,0-1.327a4.722,4.722,0,0,0-.05-.732,2.977,2.977,0,0,0-.553-1.394,1.5,1.5,0,0,0-1.256-.635c-.066,0-.136,0-.205.01a2.627,2.627,0,0,0-.927.294.9.9,0,0,0-.381.321.453.453,0,0,0-.055.4c.075.2.168.4.258.59l0,.005c.027.057.053.114.08.171a1.375,1.375,0,0,0,.083.151l.005.009.025.042.068-.029.008,0a.923.923,0,0,1,.136-.052,1.237,1.237,0,0,1,.3-.039,1.166,1.166,0,0,1,.341.051,1.152,1.152,0,0,1,.471.251.856.856,0,0,1,.247.649v2.629c0,.009,0,.018,0,.029Z" transform="translate(-6029.699 -5752.662)" fill="#01796f" stroke="rgba(0,0,0,0)" stroke-miterlimit="10" stroke-width="1"/>
  </g>
</svg>
