<svg xmlns="http://www.w3.org/2000/svg" width="40.011" height="51" viewBox="0 0 47.011 51">
  <g id="Component_126_1" data-name="Component 126 – 1" opacity="0.4">
    <g id="Ellipse_622" data-name="Ellipse 622" transform="translate(13)" fill="none" stroke="#01796f" stroke-width="2">
      <ellipse cx="17" cy="17.5" rx="17" ry="17.5" stroke="none"/>
      <ellipse cx="17" cy="17.5" rx="16" ry="16.5" fill="none"/>
    </g>
    <path id="Path_21729" data-name="Path 21729" d="M12.764,26.965s5.193-2.774,8.026-1.476,4.072,1.889,2.892,4.426S13.826,33.4,13,31.272A7.69,7.69,0,0,1,12.764,26.965Z" fill="#01796f"/>
    <path id="Path_21725" data-name="Path 21725" d="M239.079,684.894c-.825-.166-1.665-.277-2.47-.513a9.066,9.066,0,0,1-1.915-.828,1.97,1.97,0,0,1-.988-1.865q.029-6.449,0-12.9a2.04,2.04,0,0,1,1.015-1.9,8.626,8.626,0,0,1,1.365-.643.71.71,0,0,1,1.012.384.754.754,0,0,1-.523,1.013c-1.092.446-1.092.446-1.43.923a4.837,4.837,0,0,0,.84.545,11.34,11.34,0,0,0,8.51,0,6.479,6.479,0,0,0,.942-.6,7.52,7.52,0,0,0-.958-.637,9.381,9.381,0,0,0-3.56-.722,7.02,7.02,0,0,1-.73-.035.7.7,0,0,1-.654-.781.676.676,0,0,1,.742-.684,11.658,11.658,0,0,1,4.629.786c.115.049.237.078.4.132,0-1.487.059-2.931-.018-4.367a2.379,2.379,0,0,1,1.56-2.482c.382-.178.782-.316,1.223-.491-.057-.146-.108-.294-.171-.438a17.726,17.726,0,0,1,12.674-24.623,16.556,16.556,0,0,1,10.3,1.446c.521.246.7.643.509,1.062s-.6.542-1.126.29a14.471,14.471,0,0,0-6.293-1.564c-6.54.009-11.355,3.094-14.414,8.908a15.41,15.41,0,0,0-.3,13.906c.368.845.136.728,1.1.64a13.426,13.426,0,0,1,5.633.537,8.292,8.292,0,0,1,.9.376,2.355,2.355,0,0,1,1.485,2.433c-.061,1.342,0,2.689-.021,4.034a.532.532,0,0,0,.435.627c10.139,3.136,18.59-3.823,20.176-12.536a15.657,15.657,0,0,0-4.744-14.594c-.116-.116-.239-.225-.356-.341-.415-.413-.464-.829-.141-1.171s.711-.307,1.119.069a18.435,18.435,0,0,1,3.63,4.526,17.747,17.747,0,0,1-2.023,20.181c-4.655,5.431-10.5,7.149-17.34,5.5-.219-.053-.438-.109-.706-.177v4.9c.924-.238,1.848-.549,2.8-.707a12.639,12.639,0,0,1,6.761.621,5.7,5.7,0,0,1,1.153.632,1.881,1.881,0,0,1,.83,1.652c-.009,2.125-.013,4.25,0,6.375a2.068,2.068,0,0,1-1.144,1.884,9.715,9.715,0,0,1-3.709,1.123c-.156.022-.31.065-.465.1h-2.34a2.329,2.329,0,0,0-.326-.084,9.233,9.233,0,0,1-4.2-1.3c-.988.363-1.854.725-2.745.994a19.669,19.669,0,0,1-1.99.393h-2.34a1.129,1.129,0,0,0-.228-.075,9.37,9.37,0,0,1-4.314-1.327c-.85.334-1.584.683-2.353.91s-1.577.333-2.367.493Zm17.975-23.266a8.211,8.211,0,0,0-1.156-.676,11.433,11.433,0,0,0-8.279.056,6.808,6.808,0,0,0-1.01.638,6.811,6.811,0,0,0,1.007.632,11.323,11.323,0,0,0,8.456-.013A6.474,6.474,0,0,0,257.054,661.628Zm6.066,15.023a10.646,10.646,0,0,0,4.506-.789c.3-.136.289-1.148-.022-1.267-2.781-1.07-8.934.426-9.218.652a4.669,4.669,0,0,0,.881.648A9.857,9.857,0,0,0,263.12,676.651Zm-16.351-9.7v.691c0,1.032.064,1.128,1.023,1.516.09.037.182.071.274.1a11.545,11.545,0,0,0,4.853.558,8.609,8.609,0,0,0,3.331-.853c.245-.128.561-.348.611-.579a7.206,7.206,0,0,0,.028-1.456A13.333,13.333,0,0,1,246.769,666.951Zm-1.461,13.564a13.094,13.094,0,0,1-10.1.013c-.062,1.733-.231,1.656.88,2.094a11.219,11.219,0,0,0,8.36-.006,1.113,1.113,0,0,0,.866-1.336A4.844,4.844,0,0,1,245.308,680.515Zm0-6.722a13.52,13.52,0,0,1-10.133.009,4.611,4.611,0,0,1-.007.791c-.132.707.255,1.043.817,1.261a11.539,11.539,0,0,0,8.412.047c.638-.233,1.069-.611.917-1.4A4.1,4.1,0,0,1,245.308,673.793Zm1.506.026c-.089,1.644-.272,1.649,1.2,2.2a10.979,10.979,0,0,0,5.947.436,14.537,14.537,0,0,0,2.4-.762.89.89,0,0,0,.509-.539,7.717,7.717,0,0,0,.023-1.361A13.5,13.5,0,0,1,246.814,673.819Zm-.011,6.71c-.15,1.592-.008,1.833,1.3,2.277a11.23,11.23,0,0,0,5.574.444,15.865,15.865,0,0,0,2.646-.794,1,1,0,0,0,.551-.614,6.338,6.338,0,0,0,.025-1.325A13.12,13.12,0,0,1,246.8,680.529Zm21.676-.012a13.119,13.119,0,0,1-10.085.018c-.062,1.7-.3,1.673,1.309,2.265a10.651,10.651,0,0,0,5.575.448,16.087,16.087,0,0,0,2.688-.827.929.929,0,0,0,.49-.6A6.941,6.941,0,0,0,268.479,680.517Zm-.285-36.284c-.383-.2-.679.042-.9.371q-4.306,6.48-8.609,12.962c-.307.463-.266.884.086,1.143a.761.761,0,0,0,1.12-.311q4.3-6.457,8.583-12.921a6.185,6.185,0,0,0,.316-.639A2.731,2.731,0,0,0,268.194,644.232Zm-6.707,3.466a3.908,3.908,0,0,1-.923,2.5,2.385,2.385,0,0,1-3.75-.063,4.226,4.226,0,0,1-.017-4.993,2.4,2.4,0,0,1,3.815-.03A4.053,4.053,0,0,1,261.487,647.7Zm9.6,7.768a3.678,3.678,0,0,1-1.1,2.693,2.3,2.3,0,0,1-3.259.041,4.061,4.061,0,0,1-.14-5.482,2.4,2.4,0,0,1,3.626.137A3.99,3.99,0,0,1,271.084,655.466Z" transform="translate(-233.705 -633.894)" fill="#01796f"/>
    <line id="Line_263" data-name="Line 263" y1="13" x2="10" transform="translate(24.5 11.5)" fill="none" stroke="#01796f" stroke-linecap="round" stroke-width="3"/>
  </g>
</svg>
