<svg xmlns="http://www.w3.org/2000/svg" width="20" height="20" viewBox="0 0 20 20">
  <g id="Path" transform="translate(0 0)" fill="none">
    <path d="M18.319,1.853A5.381,5.381,0,0,0,10,2.089a5.381,5.381,0,0,0-8.319-.237A6.644,6.644,0,0,0,0,6.334a6.64,6.64,0,0,0,1.681,4.48L10,20l8.319-9.187A6.638,6.638,0,0,0,20,6.334,6.644,6.644,0,0,0,18.319,1.853Z" stroke="none"/>
    <path d="M 14.26083946228027 1.999996185302734 C 13.22759056091309 1.999996185302734 12.26387977600098 2.481845855712891 11.5472297668457 3.356795310974121 L 9.99983024597168 5.24599552154541 L 8.452630043029785 3.356625556945801 C 7.736240386962891 2.481805801391602 6.772609710693359 2.000024795532227 5.739239692687988 2.000024795532227 C 4.776220321655273 2.000024795532227 3.861240386962891 2.424594879150391 3.163429260253906 3.194904327392578 C 2.413179397583008 4.023785591125488 2 5.138495445251465 2 6.333684921264648 C 2 7.529385566711426 2.412910461425781 8.643545150756836 3.163049697875977 9.471355438232422 L 9.999946594238281 17.02052688598633 L 16.83733940124512 9.470245361328125 C 17.58708953857422 8.642855644226074 18 7.528935432434082 18 6.333684921264648 C 18 5.138504981994629 17.58682060241699 4.023795127868652 16.83712959289551 3.195514678955078 C 16.13880920410156 2.424655914306641 15.22394943237305 2.00007438659668 14.26107978820801 1.999996185302734 L 14.26083946228027 1.999996185302734 M 14.2612419128418 -1.9073486328125e-06 C 15.73114967346191 0.000118255615234375 17.2010612487793 0.6182880401611328 18.31937026977539 1.852775573730469 C 19.40312004089355 3.050125122070312 20 4.640834808349609 20 6.333684921264648 C 20 8.026535034179688 19.40312004089355 9.617245674133301 18.31937026977539 10.8132152557373 L 10 19.99999618530273 L 1.680629730224609 10.81390571594238 C 0.5968704223632812 9.617935180664062 0 8.026535034179688 0 6.333684921264648 C 0 4.640834808349609 0.5968704223632812 3.050125122070312 1.680629730224609 1.852775573730469 C 3.984371185302734 -0.6902961730957031 7.78187084197998 -0.6192054748535156 10 2.089485168457031 C 11.14163875579834 0.6956768035888672 12.70146560668945 -0.00012969970703125 14.2612419128418 -1.9073486328125e-06 Z" stroke="none" fill="#484848"/>
  </g>
</svg>
