<svg xmlns="http://www.w3.org/2000/svg" xmlns:xlink="http://www.w3.org/1999/xlink" width="100" height="100" viewBox="0 0 100 100">
  <defs>
    <linearGradient id="linear-gradient" x1="0.847" y1="0.847" x2="0.066" y2="0.08" gradientUnits="objectBoundingBox">
      <stop offset="0" stop-color="#fff" stop-opacity="0"/>
      <stop offset="1" stop-color="#005452" stop-opacity="0.2"/>
    </linearGradient>
  </defs>
  <g id="Group_68152" data-name="Group 68152" transform="translate(0)">
    <g id="Group_68144" data-name="Group 68144" transform="translate(0)">
      <path id="Path_22258" data-name="Path 22258" d="M-1021.156,753.306c0,.1,0,.193,0,.29a49.126,49.126,0,0,1-.8,8.634,49.4,49.4,0,0,1-42.294,40.048,49.039,49.039,0,0,1-6.269.4q-1.386,0-2.75-.08a48.854,48.854,0,0,1-7.575-1,49.382,49.382,0,0,1-39.044-48.287,49.371,49.371,0,0,1,49.37-49.37,49.386,49.386,0,0,1,46.494,32.733A49.186,49.186,0,0,1-1021.156,753.306Z" transform="translate(1120.526 -703.306)" fill="#fff"/>
      <path id="Path_22259" data-name="Path 22259" d="M-1071.4,802.436c-.956,0-1.894-.027-2.788-.081a49.573,49.573,0,0,1-7.669-1.017A50.148,50.148,0,0,1-1110.1,784.1a50.091,50.091,0,0,1-11.3-31.66,50.057,50.057,0,0,1,50-50,50.116,50.116,0,0,1,47.087,33.151,49.762,49.762,0,0,1,2.913,16.849c0,.105,0,.211,0,.316a49.878,49.878,0,0,1-.812,8.72,49.6,49.6,0,0,1-14.759,27.224,49.557,49.557,0,0,1-28.076,13.336A49.9,49.9,0,0,1-1071.4,802.436Zm0-98.74a48.8,48.8,0,0,0-48.74,48.74,48.949,48.949,0,0,0,38.545,47.671,48.355,48.355,0,0,0,7.478.991c.873.052,1.786.078,2.717.078a48.57,48.57,0,0,0,6.189-.393,48.474,48.474,0,0,0,41.756-39.536,48.672,48.672,0,0,0,.792-8.524c0-.112,0-.2,0-.287a48.511,48.511,0,0,0-2.839-16.424A48.854,48.854,0,0,0-1071.4,703.7Z" transform="translate(1121.396 -702.436)" fill="#018a7e"/>
    </g>
    <path id="Path_22260" data-name="Path 22260" d="M-977.091,787.171a49.114,49.114,0,0,1-.8,8.634,49.4,49.4,0,0,1-42.294,40.048l-23.738-24.414,26.518-28.924-.869-20.7Z" transform="translate(1076.457 -736.881)" fill="url(#linear-gradient)"/>
    <g id="Group_68145" data-name="Group 68145" transform="translate(29.348 23.75)">
      <path id="Path_22261" data-name="Path 22261" d="M-1051.506,842.722c.216-.534.222-1.117.409-1.663a9.992,9.992,0,0,1,2.684-3.967c2.2-2.121,4.334-4.312,6.5-6.471.519-.518,1.05-1.024,1.575-1.536.223.035.341.216.482.357q2.785,2.778,5.564,5.563c.166.166.367.313.4.574a2.805,2.805,0,0,1-1.072,1.263c-.734.643-1.409,1.343-2.1,2.028-1.672,1.661-3.329,3.337-5,5a10.109,10.109,0,0,1-2.752,2.018,8.468,8.468,0,0,1-5.486.673,1.939,1.939,0,0,0-.756-.023,2.769,2.769,0,0,1-.389-1.477c-.022-.129.042-.27-.054-.388Z" transform="translate(1051.506 -799.653)" fill="#ebf6ff"/>
      <path id="Path_22262" data-name="Path 22262" d="M-1050.378,855.4c.061-.3.254-.193.436-.149a8.03,8.03,0,0,0,2.222.247,8.321,8.321,0,0,0,5.384-2.134c2.1-1.887,4-3.967,6.025-5.926.882-.854,1.77-1.7,2.652-2.557.131-.127.3-.236.307-.452a.143.143,0,0,1,.136-.023,3.7,3.7,0,0,1,.673.617q2.219,2.212,4.431,4.432c.152.153.351.277.391.517a11.081,11.081,0,0,1-1.249,1.2q-3.571,3.564-7.145,7.124a9.12,9.12,0,0,1-4.608,2.589c-.244.051-.521-.054-.733.148h-1.948a7.493,7.493,0,0,1-4.3-1.692,8.224,8.224,0,0,1-2.651-3.512C-1050.409,855.692-1050.5,855.548-1050.378,855.4Z" transform="translate(1050.886 -808.534)" fill="#c8e1f1"/>
      <path id="Path_22263" data-name="Path 22263" d="M-1005.063,800.43c-1.883-1.81-3.723-3.663-5.543-5.536.032-.2.193-.315.32-.45,2.966-3.139,6.062-6.149,9.107-9.209a9.158,9.158,0,0,0,2.65-4.358,8.508,8.508,0,0,0,.021-4.048.725.725,0,0,0-.611-.6,8.742,8.742,0,0,0-5.549.552c-.22.1-.419.326-.7.164a49.294,49.294,0,0,1-4.074-4.1,8.457,8.457,0,0,1,4.67-13.62,7.868,7.868,0,0,1,6,.893c-.19.207-.415.087-.624.056a3.84,3.84,0,0,0-4.088,5.129,4.82,4.82,0,0,0,1.178,1.655c3.153,3.189,6.433,6.251,9.563,9.464.186.191.436.344.454.654a5.879,5.879,0,0,1-1.255,1.4c-.608.644-.618.629-.172,1.384a8.441,8.441,0,0,1,.383,8.268.844.844,0,0,1-.357.483,21.42,21.42,0,0,1-3.047,3.427Q-1000.9,796.236-1005.063,800.43Z" transform="translate(1028.228 -758.994)" fill="#01796f"/>
      <path id="Path_22264" data-name="Path 22264" d="M-1013.225,800.277a11.035,11.035,0,0,1,2.94-.964,8.945,8.945,0,0,1,3.616.185.5.5,0,0,1,.386.416,8.315,8.315,0,0,1-1.808,7.789c-1.522,1.753-3.244,3.311-4.867,4.965-1.695,1.727-3.434,3.411-5.081,5.185a5.37,5.37,0,0,1-.42.37c-.029,0-.059-.006-.088-.007q-2.985-3-5.968-6c-.142-.143-.267-.3-.4-.456q3.761-3.8,7.525-7.588A32.212,32.212,0,0,1-1013.225,800.277Z" transform="translate(1036.082 -782.323)" fill="#018a7e"/>
      <path id="Path_22265" data-name="Path 22265" d="M-960.434,788.792q2.522,2.47,4.975,5.008,1.668,1.733,3.388,3.416a8.4,8.4,0,0,1,2.678,6.8,8.161,8.161,0,0,1-2.794,5.719,7.93,7.93,0,0,1-2.928,1.719c-.319-.063-.2-.3-.167-.473a11.488,11.488,0,0,0,.231-1.567,8.1,8.1,0,0,0-2.375-6.273c-2.688-2.714-5.3-5.5-8.04-8.166-.18-.175-.4-.325-.459-.6-.025-.215.121-.344.252-.476q2.429-2.437,4.866-4.867A.65.65,0,0,1-960.434,788.792Z" transform="translate(1001.864 -776.279)" fill="#c8e1f1"/>
      <path id="Path_22266" data-name="Path 22266" d="M-976.4,772.922q-2.522,2.536-5.042,5.073c-.143.144-.275.3-.412.45-.026.055-.057.06-.094.01-1.513-1.526-3-3.078-4.547-4.57q-2.852-2.754-5.646-5.566a4.275,4.275,0,0,1-1.115-1.686,4,4,0,0,1,1.867-4.725,3.667,3.667,0,0,1,2.66-.381,2.085,2.085,0,0,0,.356.011,6.342,6.342,0,0,1,1.856,1.332q5,4.943,9.993,9.893A1.553,1.553,0,0,1-976.4,772.922Z" transform="translate(1017.833 -760.409)" fill="#014a44"/>
      <path id="Path_22267" data-name="Path 22267" d="M-968.727,801.953a.581.581,0,0,0,.094-.01c.121.142.232.293.362.424,1.4,1.4,2.831,2.769,4.185,4.211s2.8,2.793,4.146,4.242a8.32,8.32,0,0,1,2.2,4.617,9,9,0,0,1-.191,3.278c-.031.136-.061.27.075.372a8.193,8.193,0,0,1-7.765-1.209,37.06,37.06,0,0,1-4.445-4.353,10.37,10.37,0,0,0,1.058-3.432,8.31,8.31,0,0,0-1.518-5.733c-.194-.279-.168-.405.052-.621C-969.881,803.157-969.309,802.55-968.727,801.953Z" transform="translate(1004.609 -783.908)" fill="#ebf6ff"/>
    </g>
  </g>
</svg>
