<svg id="Group_68149" data-name="Group 68149" xmlns="http://www.w3.org/2000/svg" xmlns:xlink="http://www.w3.org/1999/xlink" width="100" height="100" viewBox="0 0 100 100">
  <defs>
    <linearGradient id="linear-gradient" x1="0.908" y1="0.805" x2="0.286" y2="0.34" gradientUnits="objectBoundingBox">
      <stop offset="0" stop-color="#fff" stop-opacity="0"/>
      <stop offset="1" stop-color="#005452" stop-opacity="0.2"/>
    </linearGradient>
    <linearGradient id="linear-gradient-2" x1="2.013" y1="0.813" x2="-2.3" y2="0.142" xlink:href="#linear-gradient"/>
    <linearGradient id="linear-gradient-3" x1="0.851" y1="0.829" x2="-0.064" y2="0.248" xlink:href="#linear-gradient"/>
    <linearGradient id="linear-gradient-4" x1="0.832" y1="0.833" x2="0" y2="0.069" xlink:href="#linear-gradient"/>
  </defs>
  <g id="Group_68147" data-name="Group 68147">
    <path id="Path_22268" data-name="Path 22268" d="M-641.976,751.7c0,.1,0,.193,0,.29a49.115,49.115,0,0,1-.8,8.634,49.4,49.4,0,0,1-42.294,40.048,49.048,49.048,0,0,1-6.269.4q-1.386,0-2.75-.08a48.865,48.865,0,0,1-7.575-1A49.383,49.383,0,0,1-740.716,751.7a49.371,49.371,0,0,1,49.37-49.37,49.386,49.386,0,0,1,46.494,32.733A49.188,49.188,0,0,1-641.976,751.7Z" transform="translate(741.346 -701.7)" fill="#fff"/>
    <path id="Path_22269" data-name="Path 22269" d="M-692.216,800.83c-.956,0-1.894-.027-2.788-.081a49.575,49.575,0,0,1-7.669-1.017,50.151,50.151,0,0,1-28.245-17.242,50.093,50.093,0,0,1-11.3-31.66,50.057,50.057,0,0,1,50-50,50.117,50.117,0,0,1,47.087,33.15,49.777,49.777,0,0,1,2.913,16.85c0,.106,0,.212-.005.318a49.782,49.782,0,0,1-.812,8.719,49.6,49.6,0,0,1-14.758,27.224,49.558,49.558,0,0,1-28.076,13.336A49.817,49.817,0,0,1-692.216,800.83Zm0-98.74a48.8,48.8,0,0,0-48.74,48.74A48.949,48.949,0,0,0-702.411,798.5a48.335,48.335,0,0,0,7.478.991c.874.052,1.786.079,2.717.079a48.579,48.579,0,0,0,6.189-.394,48.473,48.473,0,0,0,41.755-39.536,48.682,48.682,0,0,0,.792-8.523c0-.113,0-.2,0-.287a48.51,48.51,0,0,0-2.839-16.424A48.855,48.855,0,0,0-692.216,702.09Z" transform="translate(742.216 -700.83)" fill="#018a7e"/>
  </g>
  <path id="Path_22270" data-name="Path 22270" d="M-612.4,821.685h-.491l2.125-3.095c-.113.672-.231,1.344-.344,2.016A1.149,1.149,0,0,1-612.4,821.685Z" transform="translate(667.197 -769.14)" fill="url(#linear-gradient)"/>
  <path id="Path_22271" data-name="Path 22271" d="M-601.61,800.81a1.134,1.134,0,0,1,.168.567,1.081,1.081,0,0,1-.168.609Z" transform="translate(660.653 -758.826)" fill="url(#linear-gradient-2)"/>
  <path id="Path_22272" data-name="Path 22272" d="M-623.719,808.307c-.147,0-.294,0-.441-.008l1.612-2.352a11.715,11.715,0,0,0,10.523-11.653,11.6,11.6,0,0,0-2.671-7.416l0-3.259a13.963,13.963,0,0,1,4.976,10.687A14.025,14.025,0,0,1-623.719,808.307Z" transform="translate(673.734 -748.855)" fill="url(#linear-gradient-3)"/>
  <path id="Path_22273" data-name="Path 22273" d="M-628.306,768.41l0,3.771a6.669,6.669,0,0,0,3,1.957,2.035,2.035,0,0,1,1.6,2.007c.017.3.168.588.189.89a4.991,4.991,0,0,0,1.671,3.137,2.61,2.61,0,0,1,.735,3.141,5.549,5.549,0,0,0,0,4.153,2.525,2.525,0,0,1-.714,3.091,6.173,6.173,0,0,0-1.864,4.082,2.08,2.08,0,0,1-1.566,1.986,6.724,6.724,0,0,0-3.83,3.061,1.941,1.941,0,0,1-2.2,1.054,3.457,3.457,0,0,0-.626-.008,5.41,5.41,0,0,0-3.657.844,4.268,4.268,0,0,1-1.776.76,3.807,3.807,0,0,1-1.73-.752c-.034-.021-.067-.038-.1-.055l-8.44,12.308L-631.069,839a49.4,49.4,0,0,0,42.294-40.048,49.115,49.115,0,0,0,.8-8.634Zm-4.636,34.631c1.1-.013,2.2-.029,3.3,0a1.508,1.508,0,0,0,1.348-.659c.424-.559.873-1.092,1.348-1.688,1.491,1.965,2.956,3.884,4.468,5.879-.323.067-.584.134-.857.189-.735.134-1.474.269-2.213.407a1.313,1.313,0,0,0-1.02.773c-.437.92-.9,1.831-1.386,2.83l-5.766-7.58A4.639,4.639,0,0,1-632.942,803.041Z" transform="translate(687.337 -740.032)" fill="url(#linear-gradient-4)"/>
  <g id="Group_68148" data-name="Group 68148" transform="translate(31.026 25.924)">
    <path id="Path_22274" data-name="Path 22274" d="M-631.176,782.349a1.77,1.77,0,0,1,.008-.7c.231-1.092.47-2.184.735-3.267a1.389,1.389,0,0,0-.286-1.293c-.676-.827-1.352-1.659-1.995-2.515a2.9,2.9,0,0,1-.458-.97c-.256-1-.474-1.986-.684-2.99a1.521,1.521,0,0,0-.928-1.18c-.983-.445-1.957-.924-2.927-1.415a2.058,2.058,0,0,1-.617-.5c-.676-.819-1.352-1.654-2-2.507a1.537,1.537,0,0,0-1.348-.655c-1.083.029-2.175.017-3.259,0a1.9,1.9,0,0,1-.722-.172c-1.025-.474-2.049-.962-3.065-1.465a1.325,1.325,0,0,0-1.276,0c-.609.311-1.26.558-1.844.9a5.286,5.286,0,0,1-3.191.739c-.663-.055-1.34.017-2.011-.017a1.471,1.471,0,0,0-1.31.642c-.621.81-1.255,1.617-1.919,2.394a3.183,3.183,0,0,1-.915.722c-.928.487-1.881.924-2.839,1.377a1.292,1.292,0,0,0-.773.962c-.235,1.071-.475,2.146-.747,3.212a2.332,2.332,0,0,1-.4.844c-.659.873-1.352,1.738-2.053,2.591a1.335,1.335,0,0,0-.277,1.247c.256,1.1.512,2.2.743,3.313a1.771,1.771,0,0,1-.008.7c-.231,1.109-.487,2.2-.743,3.313a1.309,1.309,0,0,0,.265,1.209c.689.852,1.39,1.709,2.053,2.591a2.688,2.688,0,0,1,.42.886c.265,1.033.5,2.079.722,3.124a1.415,1.415,0,0,0,.861,1.067c.827.378,1.638.785,2.519,1.205a5.486,5.486,0,0,1-.361.474q-2.608,3.433-5.216,6.862a1.187,1.187,0,0,0,.789,2.07c1.251.244,2.507.483,3.763.7a.843.843,0,0,1,.71.533c.546,1.176,1.125,2.326,1.7,3.485a1.694,1.694,0,0,0,.428.567,1.143,1.143,0,0,0,1.73-.34c1.323-1.739,2.65-3.485,3.972-5.224,1.016-1.331,2.032-2.662,3.095-4.057a2.152,2.152,0,0,0,2.965.008c.16.2.265.336.37.474q3.351,4.409,6.7,8.81a1.168,1.168,0,0,0,2.129-.2c.563-1.142,1.142-2.28,1.676-3.439a.962.962,0,0,1,.806-.609c1.243-.21,2.486-.453,3.72-.7,1.163-.231,1.487-1.13.764-2.083q-2.614-3.433-5.22-6.866c-.1-.134-.2-.277-.323-.449.84-.407,1.629-.815,2.444-1.176a1.553,1.553,0,0,0,.957-1.209q.315-1.55.7-3.078a2.083,2.083,0,0,1,.361-.76c.68-.89,1.377-1.764,2.087-2.629a1.387,1.387,0,0,0,.269-1.256C-630.688,784.563-630.945,783.458-631.176,782.349Zm-28.87,22.306a1.473,1.473,0,0,0-1.2-.9c-.953-.155-1.9-.353-2.956-.554,1.512-1.99,2.981-3.922,4.485-5.9.474.592.932,1.142,1.36,1.713a1.468,1.468,0,0,0,1.31.638c1.117-.021,2.238-.013,3.351,0a5.644,5.644,0,0,1,.752.151c-1.948,2.562-3.838,5.043-5.766,7.58C-659.172,806.432-659.629,805.55-660.045,804.656Zm25.548-1.474c-.323.067-.584.134-.857.189q-1.1.2-2.213.407a1.313,1.313,0,0,0-1.02.773c-.437.92-.9,1.831-1.386,2.83l-5.766-7.58a4.629,4.629,0,0,1,.777-.151c1.1-.013,2.2-.029,3.3,0a1.508,1.508,0,0,0,1.348-.659c.424-.558.873-1.092,1.348-1.688C-637.474,799.268-636.009,801.187-634.5,803.182Zm.663-16.016a6.173,6.173,0,0,0-1.864,4.082,2.08,2.08,0,0,1-1.566,1.986,6.723,6.723,0,0,0-3.83,3.061,1.941,1.941,0,0,1-2.2,1.054,3.451,3.451,0,0,0-.626-.008,5.411,5.411,0,0,0-3.658.844,4.268,4.268,0,0,1-1.776.76,3.807,3.807,0,0,1-1.73-.752,1.126,1.126,0,0,0-.1-.055,5.791,5.791,0,0,0-3.6-.789h-.1a4.727,4.727,0,0,1-1.835-.084,3.561,3.561,0,0,1-1.167-1.361,6.192,6.192,0,0,0-3.07-2.469,3.939,3.939,0,0,1-1.659-.886,3.857,3.857,0,0,1-.458-1.785,6.137,6.137,0,0,0-1.692-3.506,3.818,3.818,0,0,1-1.1-1.474,3.787,3.787,0,0,1,.34-1.81,6.185,6.185,0,0,0,0-3.935,3.674,3.674,0,0,1-.34-1.806,3.524,3.524,0,0,1,1.1-1.474,6.29,6.29,0,0,0,1.776-3.973,2.143,2.143,0,0,1,1.6-2.02,6.7,6.7,0,0,0,3.8-3.04,2.038,2.038,0,0,1,2.242-1.075,6.7,6.7,0,0,0,4.741-1.075,2.087,2.087,0,0,1,2.574.008,6.631,6.631,0,0,0,4.686,1.067,2.045,2.045,0,0,1,2.28,1.092,7.054,7.054,0,0,0,.752,1.046,6.667,6.667,0,0,0,3,1.957,2.035,2.035,0,0,1,1.6,2.007c.017.3.168.588.189.89a4.992,4.992,0,0,0,1.671,3.137,2.61,2.61,0,0,1,.735,3.141,5.549,5.549,0,0,0,0,4.153A2.525,2.525,0,0,1-633.834,787.166Z" transform="translate(668.33 -762.565)" fill="#01796f"/>
    <path id="Path_22275" data-name="Path 22275" d="M-633.418,779.049a13.894,13.894,0,0,0-9.016-3.309,14.019,14.019,0,0,0-14,14,14.013,14.013,0,0,0,13.551,13.992c.147,0,.294.008.441.008a14.025,14.025,0,0,0,14-14A13.963,13.963,0,0,0-633.418,779.049Zm-7.848,22.327a11.645,11.645,0,0,1-1.218.063,11.7,11.7,0,0,1-11.649-11.7,11.7,11.7,0,0,1,11.707-11.691,11.672,11.672,0,0,1,9.012,4.262,11.6,11.6,0,0,1,2.671,7.416A11.715,11.715,0,0,1-641.267,801.376Z" transform="translate(661.427 -770.208)" fill="#01796f"/>
    <path id="Path_22276" data-name="Path 22276" d="M-626.348,802.006a1.093,1.093,0,0,0-1.18-.067c-.181.1-.353.218-.525.332-.634.411-1.272.827-1.927,1.256-.663-1.083-1.293-2.121-1.927-3.154a1.181,1.181,0,0,0-2.213-.008c-.63,1.033-1.256,2.07-1.927,3.162-.81-.529-1.579-1.037-2.356-1.537a1.1,1.1,0,0,0-1.264.017,1.069,1.069,0,0,0-.5,1.113c.353,2.167.714,4.342,1.092,6.509a1.119,1.119,0,0,0,1.264,1.041h9.578a1.149,1.149,0,0,0,1.289-1.079c.113-.672.231-1.344.344-2.016.248-1.482.5-2.969.739-4.447A1.075,1.075,0,0,0-626.348,802.006Zm-2.721,6.349h-7.9c-.16-.962-.315-1.919-.5-2.986.411.264.735.483,1.067.684a1.165,1.165,0,0,0,1.764-.407c.525-.848,1.046-1.713,1.608-2.641.13.189.227.319.311.462.449.735.886,1.474,1.344,2.2a1.161,1.161,0,0,0,1.73.391c.332-.21.663-.428,1.079-.7C-628.737,806.424-628.9,807.377-629.069,808.355Z" transform="translate(652.001 -784.048)" fill="#01796f"/>
    <path id="Path_22277" data-name="Path 22277" d="M-624.728,794.545a1.14,1.14,0,0,1-1.129-1.167,1.157,1.157,0,0,1,1.144-1.114,1.162,1.162,0,0,1,1.151,1.159A1.125,1.125,0,0,1-624.728,794.545Z" transform="translate(643.692 -779.793)" fill="#01796f"/>
    <path id="Path_22278" data-name="Path 22278" d="M-642.719,800.656a1.158,1.158,0,0,1-1.174,1.136,1.161,1.161,0,0,1-1.121-1.182,1.152,1.152,0,0,1,1.151-1.106A1.15,1.15,0,0,1-642.719,800.656Z" transform="translate(654.805 -783.993)" fill="#01796f"/>
    <path id="Path_22279" data-name="Path 22279" d="M-604.371,800.61a1.081,1.081,0,0,1-.168.609,1.132,1.132,0,0,1-.962.563,1.158,1.158,0,0,1-1.159-1.142,1.16,1.16,0,0,1,1.1-1.151,1.138,1.138,0,0,1,1.016.554A1.133,1.133,0,0,1-604.371,800.61Z" transform="translate(632.557 -783.983)" fill="#01796f"/>
  </g>
</svg>
