<svg id="money" xmlns="http://www.w3.org/2000/svg" width="35" height="35.902" viewBox="0 0 75 74.902">
  <path id="Path_147" data-name="Path 147" d="M59.294,28.1h14.5A1.208,1.208,0,0,0,75,26.9V3.949a1.208,1.208,0,0,0-1.208-1.208h-14.5a1.208,1.208,0,0,0-1.208,1.208v.677L34.407.485a10.857,10.857,0,0,0-6.04.679L3.529,12.006A5.882,5.882,0,0,0,5.882,23.278H28.617a5.925,5.925,0,0,0,2.045,1.7,14.6,14.6,0,0,0-7.709,12.8A14.4,14.4,0,0,0,26.6,47.364l-9.687,2.22v-.929A1.208,1.208,0,0,0,15.7,47.448H1.207A1.208,1.208,0,0,0,0,48.656V71.6A1.208,1.208,0,0,0,1.207,72.81H15.7A1.208,1.208,0,0,0,16.913,71.6v-.677l23.679,4.14a10.815,10.815,0,0,0,6.04-.679L71.47,63.546a5.882,5.882,0,0,0-2.354-11.273H46.382A5.921,5.921,0,0,0,44.3,50.551,14.469,14.469,0,0,0,48.316,28.2l9.77-2.24v.929A1.207,1.207,0,0,0,59.294,28.1ZM60.5,5.157H72.583v20.53H60.5ZM14.5,70.394H2.416V49.864H14.5Zm30.59-15.485a3.653,3.653,0,0,1-.4,2.956,3.485,3.485,0,0,1-4.5,1.317l-8.368-4.107a1.21,1.21,0,1,0-1.064,2.174l8.368,4.108a5.881,5.881,0,0,0,7.618-2.211,6.04,6.04,0,0,0,.746-4.457H69.113A3.466,3.466,0,0,1,70.5,61.334L45.682,72.164a8.343,8.343,0,0,1-4.673.521l-24.1-4.213V52.063l13.973-3.2a8.364,8.364,0,0,1,5.413.583l6.892,3.243a3.573,3.573,0,0,1,1.9,2.223Zm4.445-17.133a12.006,12.006,0,0,1-8.112,11.406l-4.09-1.925a10.79,10.79,0,0,0-6.981-.751l-.979.224a11.983,11.983,0,0,1-4-8.953,12.145,12.145,0,0,1,8.176-11.423l4.126,1.941a10.779,10.779,0,0,0,6.983.752l.9-.206a12.059,12.059,0,0,1,3.972,8.936ZM44.113,26.691a8.352,8.352,0,0,1-5.413-.583l-6.886-3.243a3.57,3.57,0,0,1-1.9-2.223,3.652,3.652,0,0,1,.4-2.956,3.487,3.487,0,0,1,4.5-1.317l8.368,4.107a1.208,1.208,0,0,0,1.064-2.168L35.88,14.2a5.89,5.89,0,0,0-7.618,2.211,6.04,6.04,0,0,0-.752,4.451H5.882A3.466,3.466,0,0,1,4.5,14.218L29.316,3.387a8.374,8.374,0,0,1,4.673-.525l24.1,4.217V23.487Zm0,0" transform="translate(0.001 -0.325)" fill="#01796f"/>
  <g id="Group_67966" data-name="Group 67966">
    <text id="_" data-name="৳" transform="translate(31 43)" fill="#01796f" font-size="15" font-family="NirmalaUI-Bold, Nirmala UI" font-weight="700"><tspan x="0" y="0">৳</tspan></text>
  </g>
</svg>
