<svg xmlns="http://www.w3.org/2000/svg" width="30" height="30" viewBox="0 0 30 30">
  <g id="Group_769" data-name="Group 769" transform="translate(0 0.142)">
    <circle id="Ellipse_62" data-name="Ellipse 62" cx="15" cy="15" r="15" transform="translate(0 -0.142)" fill="#01796f"/>
    <path id="prescription" d="M6.989,4.464H6.211V3.686a.293.293,0,0,0-.586,0v.778H4.846a.293.293,0,0,0,0,.586h.778v.778a.293.293,0,1,0,.586,0V5.05h.778a.293.293,0,0,0,0-.586ZM5.918,2.179A2.578,2.578,0,1,0,8.5,4.757,2.581,2.581,0,0,0,5.918,2.179Zm0,4.57A1.992,1.992,0,1,1,7.91,4.757,1.994,1.994,0,0,1,5.918,6.749ZM11.749,2.7,9.142.1A.293.293,0,0,0,8.935.01H.879A.88.88,0,0,0,0,.889V14.13a.88.88,0,0,0,.879.879h5.6a.293.293,0,1,0,0-.586H.879a.293.293,0,0,1-.293-.293V.889A.293.293,0,0,1,.879.6H8.642V2.324a.88.88,0,0,0,.879.879h1.728V8.418a.293.293,0,0,0,.586,0V2.91A.293.293,0,0,0,11.749,2.7ZM9.521,2.617a.293.293,0,0,1-.293-.293V1.01l1.607,1.607Zm.146,5.6H4.58a.293.293,0,0,0,0,.586H9.667a.293.293,0,0,0,0-.586Zm-6.545,0H2.168a.293.293,0,1,0,0,.586h.954a.293.293,0,1,0,0-.586ZM7.5,9.853H4.58a.293.293,0,1,0,0,.586H7.5a.293.293,0,1,0,0-.586Zm-4.377,0H2.168a.293.293,0,1,0,0,.586h.954a.293.293,0,1,0,0-.586Zm1.664,1.726a.293.293,0,1,0,.086.207A.295.295,0,0,0,4.787,11.579Zm-1.664-.086H2.168a.293.293,0,1,0,0,.586h.954a.293.293,0,1,0,0-.586Zm10.061-.117a1.8,1.8,0,0,0-.253.018A1.816,1.816,0,0,0,9.907,9.588l-2.32,2.32a1.816,1.816,0,0,0,2.569,2.569l1.214-1.214a1.816,1.816,0,1,0,1.814-1.887ZM9.741,14.063A1.23,1.23,0,0,1,8,12.322l.953-.953,1.74,1.74ZM11.108,12.7l-1.74-1.74L10.321,10a1.23,1.23,0,0,1,1.74,1.74Zm1.782,1.692a1.23,1.23,0,0,1,0-2.39Zm.586,0V12a1.23,1.23,0,0,1,0,2.39Z" transform="translate(8 7.99)" fill="#fff"/>
  </g>
</svg>
