<svg xmlns="http://www.w3.org/2000/svg" xmlns:xlink="http://www.w3.org/1999/xlink" width="100" height="100" viewBox="0 0 100 100">
  <defs>
    <linearGradient id="linear-gradient" x1="0.861" y1="0.851" x2="0.319" y2="0.246" gradientUnits="objectBoundingBox">
      <stop offset="0" stop-color="#fff" stop-opacity="0"/>
      <stop offset="1" stop-color="#005452" stop-opacity="0.2"/>
    </linearGradient>
  </defs>
  <g id="Group_68151" data-name="Group 68151" transform="translate(0 0)">
    <g id="Group_68141" data-name="Group 68141" transform="translate(0 0)">
      <path id="Path_22220" data-name="Path 22220" d="M-1394.646,759.28a49.371,49.371,0,0,1-49.37,49.37,49.5,49.5,0,0,1-10.326-1.083,49.382,49.382,0,0,1-39.044-48.287,49.371,49.371,0,0,1,49.37-49.37,49.385,49.385,0,0,1,46.494,32.733A49.187,49.187,0,0,1-1394.646,759.28Z" transform="translate(1494.016 -709.28)" fill="#fff"/>
      <path id="Path_22221" data-name="Path 22221" d="M-1444.886,808.41a50.245,50.245,0,0,1-10.457-1.1,50.148,50.148,0,0,1-28.245-17.242,50.09,50.09,0,0,1-11.3-31.66,50.057,50.057,0,0,1,50-50,50.115,50.115,0,0,1,47.086,33.151,49.754,49.754,0,0,1,2.913,16.849A50.056,50.056,0,0,1-1444.886,808.41Zm0-98.74a48.8,48.8,0,0,0-48.74,48.741,48.949,48.949,0,0,0,38.545,47.67,49.035,49.035,0,0,0,10.2,1.07,48.8,48.8,0,0,0,48.74-48.74,48.5,48.5,0,0,0-2.84-16.425A48.853,48.853,0,0,0-1444.886,709.67Z" transform="translate(1494.886 -708.41)" fill="#018a7e"/>
    </g>
    <path id="Path_22222" data-name="Path 22222" d="M-1370.189,786.59a49.371,49.371,0,0,1-49.37,49.37,49.509,49.509,0,0,1-10.326-1.083l-21.34-23.234,60.485-54.653,17.675,12.963A49.19,49.19,0,0,1-1370.189,786.59Z" transform="translate(1469.56 -736.59)" fill="url(#linear-gradient)"/>
    <g id="Group_68142" data-name="Group 68142" transform="translate(17.766 18.603)">
      <path id="Path_22223" data-name="Path 22223" d="M-1341.523,826.38a9.475,9.475,0,0,1-.983,1.861,4.313,4.313,0,0,1-2.907,1.529c-.063-.294.145-.469.307-.652a3.954,3.954,0,0,0,1-2.713q0-16.08,0-32.161a4,4,0,0,0-1.845-3.526,9.506,9.506,0,0,1-3.907-5.165c-.2-.61-.6-.656-1.11-.656q-8.559.008-17.118,0a11.341,11.341,0,0,1-1.244-.022,3.206,3.206,0,0,0,2.592.765h7.992a3.427,3.427,0,0,1,.876.062,1.131,1.131,0,0,1,.886,1.146A1.148,1.148,0,0,1-1358,787.9a5.266,5.266,0,0,1-.754.025h-7.111c-1.033,0-1.026,0-1.023,1.007.006,2.832,0,5.664,0,8.5,0,1.055,0,1.058,1.039,1.058h17.81a2.568,2.568,0,0,1,.874.071c.122.043.314.078.19.3a1.132,1.132,0,0,1-.723.156q-9.606,0-19.213,0c-.042,0-.083-.008-.124-.012a5.52,5.52,0,0,1-1.921-.124c-.274-.3-.2-.669-.2-1.017-.007-2.848,0-5.7-.007-8.545a2.317,2.317,0,0,0-1.925-2.566c-.365-.2-.846.049-1.177-.294a13.573,13.573,0,0,0,1.277-3.862c.334-.3.607-.117.886.1.64.5.775.5,1.405-.017a1.3,1.3,0,0,1,.873-.283c1.174,0,2.347,0,3.52,0a1.364,1.364,0,0,1,.919.333c.554.461.776.462,1.307,0a1.318,1.318,0,0,1,.918-.331c1.173,0,2.347,0,3.52,0a1.433,1.433,0,0,1,.969.369c.5.424.75.417,1.259-.031a1.313,1.313,0,0,1,.916-.336c1.174,0,2.347,0,3.521,0a1.374,1.374,0,0,1,.966.371c.483.429.753.415,1.261-.019.325-.277.642-.488,1.047-.152a8.9,8.9,0,0,0,3.629,6.529,6.008,6.008,0,0,1,2.547,3.272Z" transform="translate(1405.989 -769.924)" fill="#01796f"/>
      <path id="Path_22224" data-name="Path 22224" d="M-1418.852,792.062c.38.084.786-.089,1.154.115-.227.276-.527.188-.757.177a2.275,2.275,0,0,1,1.295,1.911,5.154,5.154,0,0,1,.022.817q0,12.147,0,24.294c0,.1,0,.21,0,.315-.012.88-.056.942-.926,1.115a10.746,10.746,0,0,0-2.511.8,1,1,0,0,1-.907.055,15.834,15.834,0,0,0-2.247-.811c-.146-.044-.379-.052-.357-.272.019-.189.234-.225.389-.266a5.662,5.662,0,0,0,2.336-1.178,5.18,5.18,0,0,0,1.766-5.436,5.068,5.068,0,0,0-3.9-3.949,5.361,5.361,0,0,0-6.78,5.143,5.2,5.2,0,0,0,2.551,4.7c.211.136.441.242.657.372.188.114.547.14.517.378-.039.309-.409.309-.665.346a9.644,9.644,0,0,0-5.886,3.11,8.844,8.844,0,0,0-1.875,3.026c-.313.873-.4.941-1.312.942q-5.192.006-10.384,0a4.475,4.475,0,0,0-.691.023.714.714,0,0,0-.678.705.716.716,0,0,0,.628.75,3.243,3.243,0,0,0,.815.048q4.909,0,9.817,0c1.07,0,1.141.07,1.137,1.143A7.073,7.073,0,0,0-1435.5,832a.811.811,0,0,1-.047.726,10.933,10.933,0,0,1-2.44.138q-5.916,0-11.832,0a2.472,2.472,0,0,1-2.671-1.831,2.309,2.309,0,0,1-.075-.682q0-17.875-.009-35.75a2.394,2.394,0,0,1,2.412-2.415c4.594.036,9.188.021,13.783.006a2.282,2.282,0,0,1,2.152,1.018c.159.252.276.221.447-.033a2.262,2.262,0,0,1,2.046-.985q3.713.029,7.426,0A41.941,41.941,0,0,0-1418.852,792.062Z" transform="translate(1452.577 -775.538)" fill="#01b8a6"/>
      <path id="Path_22225" data-name="Path 22225" d="M-1343.818,802c-.206-.221-.475-.12-.714-.12q-9.346-.01-18.693.007c-.565,0-.749-.132-.743-.726.03-3.063.015-6.127.012-9.19,0-.326-.166-.779-.01-.948.243-.265.713-.1,1.084-.1,2.58-.01,5.161,0,7.742-.006.689,0,1.145-.393,1.13-.965-.015-.555-.448-.921-1.128-.922q-4.626-.006-9.252,0a1.713,1.713,0,0,1-1.37-.436,4.749,4.749,0,0,0-1.115-.626c.151-.126.316-.074.461-.074q9.473-.005,18.946-.011c.455,0,.725.083.864.582a9,9,0,0,0,3.835,5.236,4.241,4.241,0,0,1,1.982,3.763c0,10.365-.02,20.731.021,31.1a5.406,5.406,0,0,1-1.519,4.4l-15.753.005c-.094-.273.071-.486.172-.709a9.837,9.837,0,0,0,.056-8.448c-.112-.248-.352-.521.016-.771a2.8,2.8,0,0,1,1-.089q5.693,0,11.386,0c.189,0,.378,0,.566,0,.778-.013.827-.054.831-.817.007-1.384,0-2.769,0-4.153,0-.252,0-.5.016-.755-.042-4.4-.007-8.8-.018-13.194,0-.44-.005-.88,0-1.319A1.018,1.018,0,0,1-1343.818,802Z" transform="translate(1402.864 -773.119)" fill="#018a7e"/>
      <path id="Path_22226" data-name="Path 22226" d="M-1429.618,832.888a8.912,8.912,0,0,1-.267-2.678c.048-.508-.171-.579-.611-.577-3.419.016-6.839.009-10.259.008-.21,0-.42.008-.629-.007a.975.975,0,0,1-.967-.96.956.956,0,0,1,.982-.936c1.993-.013,3.986-.008,5.979-.008,1.783,0,3.566-.011,5.349.008a.643.643,0,0,0,.717-.511,9.675,9.675,0,0,1,7.979-6.541c.221-.036.44-.092.7-.147a5.626,5.626,0,0,1-3.777-6.539,5.481,5.481,0,0,1,5.547-4.476,5.692,5.692,0,0,1,5.5,4.629,5.759,5.759,0,0,1-4.7,6.607,10.669,10.669,0,0,1,2.534.891.666.666,0,0,0,.7.027,9.1,9.1,0,0,1,2.976-.95c.359-.057.489-.156.489-.538q-.017-12.746-.014-25.493a2.627,2.627,0,0,0-1.51-2.363h1.139a2.356,2.356,0,0,1,2.12,2.515c.01,2.987,0,5.974,0,8.961,0,.25.015.5.023.75a1.53,1.53,0,0,1,.192,1.028q.005,6.378,0,12.755c0,.231.006.461.005.691a.5.5,0,0,0,.574.574,4.593,4.593,0,0,1,.876.045.653.653,0,0,1,.2.079.317.317,0,0,1,.151.258c-.085.814.472,1.031,1.088,1.253a3.278,3.278,0,0,1,1.715,1.057c.094,1.154.206,1.252,1.631,1.426a3.718,3.718,0,0,1,1.382,1.626.316.316,0,0,1-.115.481,6.894,6.894,0,0,1-1.946.047.952.952,0,0,1-.521-.328,7.759,7.759,0,0,0-8.774-2.312,4.064,4.064,0,0,0-1.334.632,1.2,1.2,0,0,1-.728.3,8.833,8.833,0,0,1-1.459-.727,7.914,7.914,0,0,0-8.28,1.035,8.1,8.1,0,0,0-2.871,5.872,5.521,5.521,0,0,0,.066.877c.019.208.105.479-.237.543-.131-.144-.163.023-.218.079s-.082.143-.134.205A2.213,2.213,0,0,1-1429.618,832.888Z" transform="translate(1446.645 -775.697)" fill="#01796f"/>
      <path id="Path_22227" data-name="Path 22227" d="M-1408.176,873.511c.189-.12.106-.3.089-.456a7.939,7.939,0,0,1,7.686-8.777,8.66,8.66,0,0,1,5.069,1.563,1.591,1.591,0,0,1,.833.529,8.14,8.14,0,0,1-.458,12.08,1.209,1.209,0,0,1-.379.215,13.159,13.159,0,0,1-2.96,1.314,7.95,7.95,0,0,1-9.533-5.6A8.33,8.33,0,0,0-1408.176,873.511Z" transform="translate(1426.821 -817.428)" fill="#8eede1"/>
      <path id="Path_22228" data-name="Path 22228" d="M-1349.881,765.373a.894.894,0,0,0-1.012.388.865.865,0,0,1-1.407-.062.773.773,0,0,0-.726-.353c-1.258.015-2.518.013-3.776,0a.717.717,0,0,0-.677.319.893.893,0,0,1-1.531-.021.675.675,0,0,0-.626-.3c-1.279.009-2.559.011-3.839,0a.721.721,0,0,0-.674.324.894.894,0,0,1-1.532-.028.672.672,0,0,0-.628-.294c-1.28.008-2.56.012-3.839,0a.719.719,0,0,0-.671.328.885.885,0,0,1-1.492.014.758.758,0,0,0-.857-.315c-.455-.007-.91-.018-1.366-.02-1.124-.005-1.486-.363-1.481-1.484,0-.181-.05-.375.076-.54a1.231,1.231,0,0,1,.839-.189c.587-.008,1.174-.009,1.76,0,.426.005.616-.183.6-.6-.006-.188,0-.377,0-.566,0-2.557,0-5.115,0-7.671,0-.372-.051-.767.3-1.045.6-.722,1.141-.715,1.778.024a1.345,1.345,0,0,1,.212,1.018c.006,2.644,0,5.288,0,7.932,0,.885.028.907.928.91.8,0,1.594,0,2.392,0,1.056,0,1.058,0,1.059-1.032,0-2.6,0-5.2.005-7.806,0-.346-.081-.724.232-1,.666-.773,1.187-.777,1.838-.017.28.294.214.667.215,1.017.006,2.644,0,5.288,0,7.932,0,.884.028.906.928.909.8,0,1.594,0,2.392,0,1.055,0,1.058,0,1.058-1.032,0-2.6,0-5.2,0-7.806,0-.346-.078-.724.229-1.006.671-.769,1.189-.772,1.839-.012.284.293.216.666.217,1.015.007,2.644,0,5.288.005,7.932,0,.884.028.906.929.909q1.227,0,2.455,0c.983,0,.993-.009.994-.97,0-2.623,0-5.246,0-7.869,0-.347-.076-.724.226-1.008.672-.767,1.2-.769,1.839-.007.288.29.218.664.219,1.012.007,2.638,0,5.276,0,7.915,0,.894.033.922.91.928.544,0,1.089-.007,1.633.005.268.006.553-.016.75.231,0,.209.011.417.008.626-.016.971-.4,1.346-1.38,1.355C-1348.964,765.357-1349.423,765.366-1349.881,765.373Z" transform="translate(1408.17 -752.712)" fill="#01796f"/>
      <path id="Path_22229" data-name="Path 22229" d="M-1373.512,864.873a7.964,7.964,0,0,1,8.652,1.9c.239.23.449.49.673.737a1.669,1.669,0,0,1,.52.536,8.114,8.114,0,0,1-.141,8.708,1.66,1.66,0,0,1-.581.56,7.953,7.953,0,0,1-4.743,2.8,7.968,7.968,0,0,1-4.641-.5c.4-.588,1.019-.987,1.411-1.593a11.06,11.06,0,0,0,1.115-1.966.981.981,0,0,1,1.066-.682c.649.018,1.3.015,1.95,0,.669-.016.962-.247.964-.732s-.35-.784-.993-.8c-.482-.015-.965.007-1.447-.008-.677-.021-.812-.138-.8-.827a10.942,10.942,0,0,0-.448-3.725,9.888,9.888,0,0,0-1.9-3.377C-1373.122,865.6-1373.478,865.334-1373.512,864.873Z" transform="translate(1406.865 -817.466)" fill="#ebf6ff"/>
      <path id="Path_22230" data-name="Path 22230" d="M-1358.416,754.074q-.019,4.4-.038,8.8c0,1.242,0,1.243-1.254,1.243-.985,0-1.972-.022-2.956.009-.455.015-.559-.152-.556-.579.016-2.831.01-5.661.007-8.492,0-.335-.022-.67-.033-1.005Z" transform="translate(1400.758 -753.491)" fill="#01b8a6"/>
      <path id="Path_22231" data-name="Path 22231" d="M-1342.534,754.074q-.019,4.56-.038,9.12c0,.189-.01.378,0,.566.017.274-.109.367-.372.366-1.342-.006-2.684-.009-4.025,0-.454,0-.358-.315-.359-.569,0-2.223,0-4.445,0-6.668,0-.943-.022-1.886-.034-2.829Z" transform="translate(1391.546 -753.494)" fill="#01b8a6"/>
      <path id="Path_22232" data-name="Path 22232" d="M-1326.65,754.074q-.019,4.623-.037,9.245c0,.807,0,.808-.81.808-1.132,0-2.265-.019-3.4.01-.449.011-.563-.142-.56-.574.017-2.831.01-5.661.007-8.492,0-.335-.022-.67-.035-1.005Z" transform="translate(1382.332 -753.497)" fill="#01b8a6"/>
      <path id="Path_22233" data-name="Path 22233" d="M-1375.733,865.607a11.162,11.162,0,0,1,2.982,5.276,12.084,12.084,0,0,1,.174,2.993c-.014.415.116.555.529.535.585-.029,1.172-.015,1.758,0a.919.919,0,0,1,1,.952c0,.615-.314.929-.991.942-.774.014-1.549.016-2.323,0a.592.592,0,0,0-.653.429,9.285,9.285,0,0,1-2.178,3.261c-.167.156-.306.352-.563.369a7.435,7.435,0,0,1-1.608-.92,15.737,15.737,0,0,0,2.026-2.376,7.979,7.979,0,0,0-1.806-10.227,2.749,2.749,0,0,1-.216-.222A7.841,7.841,0,0,1-1375.733,865.607Z" transform="translate(1409.085 -818.2)" fill="#c8e1f1"/>
      <path id="Path_22234" data-name="Path 22234" d="M-1312.081,764.138c-.941-.01-1.883-.05-2.823-.018-.515.017-.675-.124-.67-.657.027-2.8.014-5.608.011-8.412,0-.334-.023-.669-.035-1,.754-.005,1.509-.026,2.263-.011a1.136,1.136,0,0,1,1.269,1.238C-1312.055,758.229-1312.073,761.184-1312.081,764.138Z" transform="translate(1373.118 -753.477)" fill="#01b8a6"/>
      <path id="Path_22235" data-name="Path 22235" d="M-1372.323,754a2.09,2.09,0,0,0-.1.868c0,2.874-.009,5.747.01,8.621,0,.45-.088.636-.582.614-.942-.043-1.887-.02-2.831-.024q0-4.4,0-8.8c0-.914.333-1.248,1.243-1.264C-1373.831,754-1373.077,754-1372.323,754Z" transform="translate(1408.057 -753.457)" fill="#01b8a6"/>
      <path id="Path_22236" data-name="Path 22236" d="M-1351.428,881.644a8.173,8.173,0,0,0,1.727-5.369,7.928,7.928,0,0,0-1.354-4.107,3.326,3.326,0,0,1-.171-.328l2.156-.02a.077.077,0,0,1,.124.028,12.973,12.973,0,0,1,1.006,2.806,10.261,10.261,0,0,1-1.139,6.989Z" transform="translate(1393.902 -821.792)" fill="#53a2a3"/>
      <path id="Path_22237" data-name="Path 22237" d="M-1340.066,821.495l.01,15.267a1.311,1.311,0,0,1-.845.171q-9.259,0-18.517,0a1.358,1.358,0,0,1-.789-.152l-.025-.053a1.272,1.272,0,0,1-.174-.843q-.005-6.746,0-13.492a1.235,1.235,0,0,1,.2-.9Z" transform="translate(1399.112 -792.612)" fill="#ebf6ff"/>
      <path id="Path_22238" data-name="Path 22238" d="M-1362.557,821.471q0,7.365,0,14.729c0,.167-.018.334-.028.5-.461.005-.924-.012-1.383.022-.383.029-.5-.09-.5-.486.025-1.384.008-2.769.01-4.153q.007-5.317.016-10.634Z" transform="translate(1401.464 -792.586)" fill="#e1e1e1"/>
      <path id="Path_22239" data-name="Path 22239" d="M-1408.722,813.005q0,6.007,0,12.013a2.8,2.8,0,0,1-.017.564.9.9,0,0,1-.969.806.881.881,0,0,1-.91-.861c-.011-.125-.012-.251-.012-.377q0-12.171,0-24.341c0-.042,0-.084,0-.126.019-.764.333-1.119.976-1.1.586.013.927.4.93,1.1.006,1.468,0,2.935,0,4.4Z" transform="translate(1428.245 -779.899)" fill="#01796f"/>
      <path id="Path_22240" data-name="Path 22240" d="M-1432.651,809.1a5.565,5.565,0,0,1-5.616,5.614,5.579,5.579,0,0,1-5.6-5.569,5.6,5.6,0,0,1,5.589-5.654A5.586,5.586,0,0,1-1432.651,809.1Z" transform="translate(1447.527 -782.167)" fill="#01796f"/>
      <path id="Path_22241" data-name="Path 22241" d="M-1394.379,814.7a5.557,5.557,0,0,1-5.577-5.607,5.587,5.587,0,0,1,5.694-5.621,5.684,5.684,0,0,1,5.571,5.65A5.653,5.653,0,0,1-1394.379,814.7Z" transform="translate(1422.053 -782.158)" fill="#01796f"/>
      <path id="Path_22242" data-name="Path 22242" d="M-1432.661,838.889a5.559,5.559,0,0,1-5.612,5.636,5.6,5.6,0,0,1-5.616-5.647,5.593,5.593,0,0,1,5.593-5.6A5.562,5.562,0,0,1-1432.661,838.889Z" transform="translate(1447.537 -799.445)" fill="#01796f"/>
      <path id="Path_22243" data-name="Path 22243" d="M-1439.987,869.169c.419,0,.839-.021,1.256.005a.975.975,0,0,1,1.038.955.893.893,0,0,1-.926.979,21.892,21.892,0,0,1-2.758.01.99.99,0,0,1-.967-1.035,1.048,1.048,0,0,1,1.1-.912C-1440.825,869.154-1440.406,869.169-1439.987,869.169Z" transform="translate(1446.643 -820.262)" fill="#21c2ce"/>
      <path id="Path_22244" data-name="Path 22244" d="M-1359.979,857.866c1.506-.007,3.012-.022,4.519-.022q7.816,0,15.632,0c0,1.719-.022,3.438.011,5.155.011.561-.125.747-.721.743-4.212-.027-8.424-.015-12.636-.013-.251,0-.5.013-.753.02l-.124-.028a5.016,5.016,0,0,0-1.366-1.915.137.137,0,0,1,.076-.184,2.012,2.012,0,0,1,.867-.1q2.611-.006,5.222,0c.188,0,.377,0,.566,0,.676-.021,1.043-.28,1.052-.739s-.363-.755-1.037-.759c-2.411-.018-4.823-.006-7.234-.009a2.844,2.844,0,0,0-1.078.3l-.113.008a4.975,4.975,0,0,0-1.862-.986C-1359.817,859.141-1360.131,858.7-1359.979,857.866Z" transform="translate(1398.884 -813.696)" fill="#8eede1"/>
      <path id="Path_22245" data-name="Path 22245" d="M-1331.776,792.486c-.334,0-.669.015-1,0a.91.91,0,0,1-.9-.933.907.907,0,0,1,.888-.945c.689-.023,1.38-.019,2.069,0a.912.912,0,0,1,.881.933.917.917,0,0,1-.868.947C-1331.064,792.5-1331.42,792.486-1331.776,792.486Z" transform="translate(1383.607 -774.683)" fill="#53a2a3"/>
      <path id="Path_22246" data-name="Path 22246" d="M-1388.124,841.141a4.033,4.033,0,0,1-4.006,4,4.069,4.069,0,0,1-4.053-4.034,4.048,4.048,0,0,1,4.055-4.024A4.013,4.013,0,0,1-1388.124,841.141Z" transform="translate(1419.864 -801.654)" fill="#fff"/>
      <path id="Path_22247" data-name="Path 22247" d="M-1351.484,865.162a.146.146,0,0,0-.005.077,7.22,7.22,0,0,1-.751-.019,1.015,1.015,0,0,1-.929-1.46l.055,0A2.629,2.629,0,0,1-1351.484,865.162Z" transform="translate(1394.956 -817.127)" fill="#dedede"/>
      <path id="Path_22248" data-name="Path 22248" d="M-1395.074,886.063a1.092,1.092,0,0,1-.876-.376c-1.123-1.125-2.256-2.24-3.368-3.376-.6-.609-.617-1.1-.124-1.568.411-.391,1-.31,1.543.229q1.714,1.7,3.417,3.416a.89.89,0,0,1,.25,1.129C-1394.419,885.868-1394.669,886.139-1395.074,886.063Z" transform="translate(1421.957 -826.838)" fill="#ebf6ff"/>
      <path id="Path_22249" data-name="Path 22249" d="M-1347.388,830.423a1.5,1.5,0,0,1,1.52,1.57c.047,1.049.047,1.049,1.087,1.093a1.5,1.5,0,0,1,1.58,1.513,1.5,1.5,0,0,1-1.565,1.527c-1.059.049-1.059.049-1.1,1.079a1.493,1.493,0,0,1-1.507,1.583,1.509,1.509,0,0,1-1.53-1.565c-.055-1.055-.055-1.055-1.078-1.1a1.5,1.5,0,0,1-1.584-1.513,1.511,1.511,0,0,1,1.573-1.526c1.041-.052,1.041-.052,1.09-1.085A1.511,1.511,0,0,1-1347.388,830.423Z" transform="translate(1393.983 -797.79)" fill="#018a7e"/>
      <path id="Path_22250" data-name="Path 22250" d="M-1440.064,811.333a3.986,3.986,0,0,1,4.007-4.042,4.04,4.04,0,0,1,4.048,4.025,4.084,4.084,0,0,1-4,4.03A4.029,4.029,0,0,1-1440.064,811.333Z" transform="translate(1445.318 -784.372)" fill="#fff"/>
      <path id="Path_22251" data-name="Path 22251" d="M-1388.126,811.3a4.04,4.04,0,0,1-4.058,4.016,4.073,4.073,0,0,1-4-4.027,4.072,4.072,0,0,1,4.044-4.045A4.035,4.035,0,0,1-1388.126,811.3Z" transform="translate(1419.866 -784.346)" fill="#fff"/>
      <path id="Path_22252" data-name="Path 22252" d="M-1436.078,837.084a4.06,4.06,0,0,1,4.068,4.013,4.074,4.074,0,0,1-4.045,4.045,4.021,4.021,0,0,1-4.013-3.989A4.006,4.006,0,0,1-1436.078,837.084Z" transform="translate(1445.321 -801.654)" fill="#fff"/>
      <path id="Path_22253" data-name="Path 22253" d="M-1351.306,864.472a11.4,11.4,0,0,0-1.631-1.405.944.944,0,0,1,.935-.5c2.531,0,5.062,0,7.593,0,.7,0,1.144.408,1.124.989-.019.554-.441.921-1.12.922C-1346.705,864.485-1349.006,864.476-1351.306,864.472Z" transform="translate(1394.778 -816.436)" fill="#fefefe"/>
      <path id="Path_22254" data-name="Path 22254" d="M-1389.982,844.752c.007.787-.461,1.423-1.03,1.4-.553-.021-.984-.631-.981-1.387s.447-1.363,1-1.369S-1389.988,844-1389.982,844.752Z" transform="translate(1417.434 -805.316)" fill="#01b8a6"/>
      <path id="Path_22255" data-name="Path 22255" d="M-1435.781,814.9a1.04,1.04,0,0,1,.341-.994.946.946,0,0,1,1.511.432,3.024,3.024,0,0,1-.01,1.36.867.867,0,0,1-1.074.63.887.887,0,0,1-.765-.851C-1435.793,815.315-1435.781,815.148-1435.781,814.9Z" transform="translate(1442.84 -788.086)" fill="#01b8a6"/>
      <path id="Path_22256" data-name="Path 22256" d="M-1390.005,814.911c0,1.048-.348,1.448-1.1,1.437a.8.8,0,0,1-.774-.523,2.109,2.109,0,0,1-.119-1.23.939.939,0,0,1,1.012-.9c.587.011.846.377.957.892A1.53,1.53,0,0,1-1390.005,814.911Z" transform="translate(1417.458 -788.088)" fill="#01b8a6"/>
      <path id="Path_22257" data-name="Path 22257" d="M-1433.885,844.793c.163,1.127-.74,1.536-1.371,1.222a.787.787,0,0,1-.52-.779c.013-.271,0-.544,0-.816a.972.972,0,0,1,.933-1.033.976.976,0,0,1,.955,1.029C-1433.88,844.542-1433.885,844.668-1433.885,844.793Z" transform="translate(1442.832 -805.311)" fill="#01b8a6"/>
    </g>
  </g>
</svg>
