<?xml version="1.0" encoding="utf-8"?>
<!-- Generator: Adobe Illustrator 25.4.1, SVG Export Plug-In . SVG Version: 6.00 Build 0)  -->
<svg version="1.1" id="Layer_1" xmlns="http://www.w3.org/2000/svg" xmlns:xlink="http://www.w3.org/1999/xlink" x="0px" y="0px"
	 viewBox="0 0 612 20" style="enable-background:new 0 0 612 20;" xml:space="preserve">
<style type="text/css">
	.st0{fill:#01796F;}
	.st1{fill:#085A58;}
</style>
<g>
	<rect class="st0" width="365.8" height="20"/>
	<rect x="477.4" class="st0" width="134.6" height="20"/>
	<g>
		<path class="st1" d="M373.5,19.3V0.6h2.6v18.6H373.5z"/>
		<path class="st1" d="M396.2,19.3H393L383.4,4h-0.1c0,0.4,0.1,0.9,0.1,1.5s0.1,1.1,0.1,1.7c0,0.6,0,1.2,0.1,1.8v10.2h-2.4V0.6h3.1
			l9.6,15.2h0.1c0-0.4-0.1-0.8-0.1-1.4s-0.1-1.2-0.1-1.7s0-1.2,0-1.7V0.6h2.4L396.2,19.3L396.2,19.3z"/>
		<path class="st1" d="M414.5,0.6l-6.5,18.6h-2.7l-6.6-18.6h2.7l4.1,11.9c0.1,0.4,0.3,0.9,0.4,1.3c0.1,0.4,0.3,0.9,0.4,1.4
			c0.1,0.4,0.2,0.9,0.3,1.2c0.1-0.4,0.1-0.8,0.3-1.2c0.1-0.4,0.2-0.9,0.4-1.4c0.1-0.4,0.3-0.9,0.4-1.3l4.1-11.9
			C411.8,0.6,414.5,0.6,414.5,0.6z"/>
		<path class="st1" d="M433.3,9.9c0,1.5-0.2,2.8-0.6,3.9s-0.9,2.2-1.6,3.1s-1.6,1.5-2.7,2s-2.3,0.7-3.8,0.7c-1.5,0-2.8-0.2-3.8-0.7
			c-1-0.4-2-1.1-2.7-2c-0.7-0.9-1.2-1.9-1.6-3.1c-0.4-1.2-0.5-2.5-0.5-3.9c0-1.9,0.3-3.6,0.9-5s1.6-2.5,2.8-3.3
			c1.3-0.8,2.9-1.2,4.9-1.2c1.9,0,3.5,0.4,4.7,1.2c1.2,0.8,2.3,1.9,2.9,3.3C433,6.3,433.3,8,433.3,9.9z M418.8,9.9
			c0,1.5,0.2,2.8,0.7,3.9s1.1,2,2,2.5c0.9,0.6,2,0.9,3.3,0.9c1.4,0,2.5-0.3,3.3-0.9c0.9-0.6,1.5-1.5,1.9-2.5
			c0.4-1.1,0.6-2.4,0.6-3.9c0-2.3-0.4-4.1-1.4-5.4c-0.9-1.3-2.4-2-4.4-2c-1.4,0-2.5,0.3-3.3,0.9c-0.9,0.6-1.5,1.5-2,2.5
			C419.1,7.1,418.8,8.4,418.8,9.9z"/>
		<path class="st1" d="M437.4,19.3V0.6h2.6v18.6H437.4z"/>
		<path class="st1" d="M453,2.6c-0.9,0-1.8,0.1-2.5,0.5c-0.7,0.4-1.4,0.8-2,1.5c-0.6,0.7-0.9,1.4-1.2,2.3s-0.4,1.9-0.4,3.1
			c0,1.5,0.2,2.8,0.7,3.9c0.4,1.1,1.1,2,2,2.5c0.9,0.6,2,0.9,3.4,0.9c0.8,0,1.6-0.1,2.3-0.2c0.7-0.1,1.5-0.4,2.3-0.6v2.3
			c-0.7,0.3-1.5,0.5-2.2,0.6c-0.7,0.1-1.7,0.2-2.7,0.2c-1.9,0-3.5-0.4-4.7-1.2c-1.2-0.8-2.2-1.9-2.8-3.3s-0.9-3.1-0.9-5.1
			c0-1.4,0.2-2.7,0.6-3.9s0.9-2.2,1.7-3.1c0.7-0.9,1.7-1.5,2.8-2s2.4-0.7,3.8-0.7c0.9,0,1.8,0.1,2.8,0.3c0.9,0.2,1.7,0.5,2.5,0.8
			l-0.9,2.2c-0.7-0.3-1.3-0.5-2-0.7C454.5,2.8,453.8,2.6,453,2.6z"/>
		<path class="st1" d="M471.9,19.3h-10.5V0.6h10.5v2.3h-7.9v5.5h7.3v2.2h-7.3v6.3h7.9V19.3z"/>
	</g>
</g>
</svg>
