<svg xmlns="http://www.w3.org/2000/svg" width="180.679" height="50.991" viewBox="0 0 128.679 35.991">
  <g id="Group_67091" data-name="Group 67091" transform="translate(-220.342 -159.526)">
    <path id="Path_252" data-name="Path 252" d="M310.322,180.5v-2.591h-8.141v13.284h8.141V188.6h-4.9v-2.915h4.335v-2.5h-4.335V180.5Z" transform="translate(-41.751 -9.378)" fill="#fff"/>
    <path id="Path_253" data-name="Path 253" d="M472.955,188.349c0-.157,0-.314-.015-.465a5.591,5.591,0,0,0-.142-.989s0,0,0-.01a3.886,3.886,0,0,0-.411-1.087,3.623,3.623,0,0,0-1.616-1.509,5.869,5.869,0,0,0-2.542-.509,5.69,5.69,0,0,0-2.606.563,3.953,3.953,0,0,0-1.724,1.71,6.42,6.42,0,0,0-.622,3,5.6,5.6,0,0,0,.686,2.929,4.164,4.164,0,0,0,1.871,1.665,6.584,6.584,0,0,0,2.738.544,11.143,11.143,0,0,0,2.219-.181,5.938,5.938,0,0,0,1.489-.509v-2.16a9.058,9.058,0,0,1-1.44.485,7.944,7.944,0,0,1-1.837.2,2.548,2.548,0,0,1-1.8-.578,2.088,2.088,0,0,1-.676-1.474l-.01-.206h6.446Zm-6.383-.465.02-.211a2.106,2.106,0,0,1,.563-1.386,1.853,1.853,0,0,1,2.141-.2,1.553,1.553,0,0,1,.485.509,1.191,1.191,0,0,1,.1.171,2.411,2.411,0,0,1,.2.916l0,.2Z" transform="translate(-123.934 -12.373)" fill="#fff"/>
    <path id="Path_254" data-name="Path 254" d="M336.281,183.78a3.8,3.8,0,0,0-1.675.358,3.108,3.108,0,0,0-1.2,1.014l-.059.083h-.314l-.059-.088a3.151,3.151,0,0,0-1.146-1,3.953,3.953,0,0,0-1.807-.362,4.3,4.3,0,0,0-1.313.181,3.313,3.313,0,0,0-.985.495,2.918,2.918,0,0,0-.666.705l-.059.088h-.338l-.529-1.288h-2.385V194h3.208v-4.369a9.822,9.822,0,0,1,.142-1.8,2.358,2.358,0,0,1,.529-1.185,1.446,1.446,0,0,1,1.107-.436,1.25,1.25,0,0,1,.8.26,1.558,1.558,0,0,1,.465.779,4.808,4.808,0,0,1,.137,1.274V194h3.218V189.34a5.817,5.817,0,0,1,.353-2.243,1.4,1.4,0,0,1,1.391-.882,1.265,1.265,0,0,1,1.107.549,3.258,3.258,0,0,1,.353,1.763V194h3.208v-6.588a3.734,3.734,0,0,0-.887-2.777A3.58,3.58,0,0,0,336.281,183.78Z" transform="translate(-52.751 -12.374)" fill="#fff"/>
    <path id="Path_255" data-name="Path 255" d="M371.005,188.349a5.19,5.19,0,0,0-.573-2.552,3.61,3.61,0,0,0-1.621-1.509,5.846,5.846,0,0,0-2.537-.509,5.725,5.725,0,0,0-2.611.563,3.917,3.917,0,0,0-1.719,1.71,6.421,6.421,0,0,0-.622,3,5.6,5.6,0,0,0,.686,2.929,4.14,4.14,0,0,0,1.871,1.665,6.577,6.577,0,0,0,2.733.544,11.108,11.108,0,0,0,2.219-.181,5.973,5.973,0,0,0,1.494-.509v-2.16a9.058,9.058,0,0,1-1.44.485,8,8,0,0,1-1.837.2,2.569,2.569,0,0,1-1.807-.578,2.083,2.083,0,0,1-.671-1.474l-.015-.206h6.451Zm-6.383-.465.02-.211a2.082,2.082,0,0,1,.563-1.386,1.846,1.846,0,0,1,2.136-.2,1.641,1.641,0,0,1,.583.681,2.24,2.24,0,0,1,.2.916l0,.2Z" transform="translate(-71.923 -12.373)" fill="#fff"/>
    <rect id="Rectangle_2647" data-name="Rectangle 2647" width="3.208" height="9.367" transform="translate(313.655 172.263)" fill="#fff"/>
    <path id="Path_256" data-name="Path 256" d="M391.587,176.2v2.6c0,.431.02.887.054,1.342s.078.818.118,1.073l.039.23h-.411l-.059-.093a3.9,3.9,0,0,0-.617-.74,2.719,2.719,0,0,0-.818-.509,3.344,3.344,0,0,0-3.742,1.107,6.347,6.347,0,0,0-1.029,3.924,6.446,6.446,0,0,0,1,3.9,3,3,0,0,0,2.5,1.293,3.268,3.268,0,0,0,1.176-.191,2.573,2.573,0,0,0,.843-.5,3.11,3.11,0,0,0,.588-.71l.054-.1h.362l.774,1.318h2.41V176.2Zm.3,9.258a3.422,3.422,0,0,1-.416,1.773,1.52,1.52,0,0,1-1.381.637,1.487,1.487,0,0,1-1.259-.676,3.433,3.433,0,0,1-.465-2.008,3.661,3.661,0,0,1,.456-2.052,1.447,1.447,0,0,1,1.229-.71,1.508,1.508,0,0,1,1.47.764,4.323,4.323,0,0,1,.367,1.984Z" transform="translate(-84.065 -8.506)" fill="#fff"/>
    <rect id="Rectangle_2648" data-name="Rectangle 2648" width="3.208" height="13.936" transform="translate(319.768 167.694)" fill="#fff"/>
    <path id="Path_257" data-name="Path 257" d="M451.406,175.99a4.263,4.263,0,0,0-1.954.387,2.216,2.216,0,0,0-1.053,1.156,5.554,5.554,0,0,0-.343,2.131v.284l-1.455.887v1.46h1.381v7.734h3.208v-7.734h2.219v-2.307h-2.219v-.47a1.575,1.575,0,0,1,.225-.94.9.9,0,0,1,.764-.333,4.336,4.336,0,0,1,.735.059c.157.024.3.054.431.083l.656-1.969a10.755,10.755,0,0,0-1.166-.3A7.5,7.5,0,0,0,451.406,175.99Z" transform="translate(-115.429 -8.399)" fill="#fff"/>
    <rect id="Rectangle_2649" data-name="Rectangle 2649" width="3.208" height="9.367" transform="translate(325.886 172.263)" fill="#fff"/>
    <g id="Group_67080" data-name="Group 67080" transform="translate(292.269 183.887)">
      <path id="Path_258" data-name="Path 258" d="M367.578,214.824v-4.815h-.4v5.143h3.086v-.328Z" transform="translate(-367.181 -209.642)" fill="#fff"/>
      <path id="Path_259" data-name="Path 259" d="M375.6,209.9a.271.271,0,0,0-.216-.078.26.26,0,0,0-.211.078.3.3,0,0,0-.069.211.281.281,0,0,0,.069.211.26.26,0,0,0,.211.078.271.271,0,0,0,.216-.078.3.3,0,0,0,.069-.211A.32.32,0,0,0,375.6,209.9Zm-.416,1.332v3.826h.387V211.23Z" transform="translate(-371.221 -209.545)" fill="#fff"/>
      <path id="Path_260" data-name="Path 260" d="M380.091,209.288a2.364,2.364,0,0,0-.392-.029,1.5,1.5,0,0,0-.686.137.871.871,0,0,0-.407.421,1.624,1.624,0,0,0-.132.7v.421l-.784.093v.211h.784v3.527h.387v-3.527h.989v-.3h-.989v-.431a1.078,1.078,0,0,1,.2-.725.811.811,0,0,1,.642-.225,1.8,1.8,0,0,1,.323.029c.108.02.211.044.3.069l.088-.3A2.634,2.634,0,0,0,380.091,209.288Z" transform="translate(-372.543 -209.259)" fill="#fff"/>
      <path id="Path_261" data-name="Path 261" d="M386.7,214.317a2.224,2.224,0,0,0-.176-.911,1.41,1.41,0,0,0-.529-.627,1.646,1.646,0,0,0-.9-.23,1.777,1.777,0,0,0-1,.269,1.7,1.7,0,0,0-.617.72,2.422,2.422,0,0,0-.211,1.034,2.251,2.251,0,0,0,.22,1.024,1.524,1.524,0,0,0,.647.681,2.152,2.152,0,0,0,1.068.24,4.326,4.326,0,0,0,.71-.054,3.448,3.448,0,0,0,.622-.186v-.328a3.931,3.931,0,0,1-.642.2,3.433,3.433,0,0,1-.676.054,1.487,1.487,0,0,1-1.146-.421,1.671,1.671,0,0,1-.4-1.21H386.7Zm-3.022-.049a1.631,1.631,0,0,1,.441-1.048,1.347,1.347,0,0,1,.975-.363,1.2,1.2,0,0,1,.676.176,1.068,1.068,0,0,1,.4.5,2.007,2.007,0,0,1,.127.735Z" transform="translate(-375.39 -210.937)" fill="#fff"/>
      <path id="Path_262" data-name="Path 262" d="M401.685,210.009l-2.018,4.58h-.024l-2-4.58h-.6v5.143h.377V211.3c0-.113,0-.22,0-.323s0-.2-.01-.3-.01-.186-.015-.269h.02l2.077,4.747h.318l2.082-4.742h.02c0,.088,0,.181-.01.274s-.01.191-.01.289,0,.191,0,.279v3.9h.392v-5.143Z" transform="translate(-382.415 -209.642)" fill="#fff"/>
      <path id="Path_263" data-name="Path 263" d="M412.942,212.882a1.488,1.488,0,0,0-1.038-.313,3.151,3.151,0,0,0-.72.083,4.06,4.06,0,0,0-.651.216l.127.294a3.474,3.474,0,0,1,.607-.216,2.6,2.6,0,0,1,.622-.073,1.038,1.038,0,0,1,.754.25,1.122,1.122,0,0,1,.255.833v.279l-.779.034a3.324,3.324,0,0,0-1.489.338.946.946,0,0,0-.519.867,1.022,1.022,0,0,0,.157.573.982.982,0,0,0,.446.358,1.733,1.733,0,0,0,.7.122,2.137,2.137,0,0,0,.681-.093,1.44,1.44,0,0,0,.475-.265,1.731,1.731,0,0,0,.328-.377h.02l.074.666h.3V213.9A1.322,1.322,0,0,0,412.942,212.882Zm-.049,2.008a1.292,1.292,0,0,1-.367.975,1.451,1.451,0,0,1-1.058.363,1.113,1.113,0,0,1-.691-.2.657.657,0,0,1-.25-.554.717.717,0,0,1,.416-.676,2.827,2.827,0,0,1,1.22-.26l.73-.029Z" transform="translate(-389.082 -210.948)" fill="#fff"/>
      <path id="Path_264" data-name="Path 264" d="M422.02,209.339v1.553c0,.118,0,.25,0,.392s.015.279.025.4h-.029a1.238,1.238,0,0,0-.284-.392,1.326,1.326,0,0,0-.456-.279,1.743,1.743,0,0,0-.632-.1,1.7,1.7,0,0,0-1.323.524,2.144,2.144,0,0,0-.475,1.509,2.048,2.048,0,0,0,.451,1.44,1.664,1.664,0,0,0,1.308.495,1.875,1.875,0,0,0,.661-.1,1.3,1.3,0,0,0,.46-.279,1.452,1.452,0,0,0,.289-.387h.02l.054.7h.314v-5.471Zm0,3.61a1.967,1.967,0,0,1-.314,1.2,1.213,1.213,0,0,1-1.053.421,1.3,1.3,0,0,1-1.058-.411,1.832,1.832,0,0,1-.343-1.205,1.97,1.97,0,0,1,.367-1.288,1.313,1.313,0,0,1,1.068-.441,1.176,1.176,0,0,1,1.019.426,2.094,2.094,0,0,1,.314,1.244Z" transform="translate(-393.541 -209.3)" fill="#fff"/>
      <path id="Path_265" data-name="Path 265" d="M431.9,214.317a2.223,2.223,0,0,0-.176-.911,1.421,1.421,0,0,0-.534-.627,1.647,1.647,0,0,0-.9-.23,1.777,1.777,0,0,0-1,.269,1.7,1.7,0,0,0-.617.72,2.5,2.5,0,0,0-.211,1.034,2.251,2.251,0,0,0,.22,1.024,1.578,1.578,0,0,0,.647.681,2.172,2.172,0,0,0,1.073.24,4.369,4.369,0,0,0,.71-.054,3.29,3.29,0,0,0,.617-.186v-.328a3.934,3.934,0,0,1-.642.2,3.433,3.433,0,0,1-.676.054,1.487,1.487,0,0,1-1.146-.421,1.692,1.692,0,0,1-.4-1.21H431.9Zm-3.022-.049a1.628,1.628,0,0,1,.436-1.048,1.347,1.347,0,0,1,.975-.363,1.2,1.2,0,0,1,.676.176,1.068,1.068,0,0,1,.4.5,1.91,1.91,0,0,1,.132.735Z" transform="translate(-398.444 -210.937)" fill="#fff"/>
      <path id="Path_266" data-name="Path 266" d="M445.317,210.337v-.328h-3.086v5.143h3.086v-.328h-2.689v-2.209h2.537v-.328h-2.537v-1.95Z" transform="translate(-405.469 -209.642)" fill="#fff"/>
      <path id="Path_267" data-name="Path 267" d="M453.112,212.882a1.5,1.5,0,0,0-1.038-.313,3.193,3.193,0,0,0-.725.083,4.168,4.168,0,0,0-.647.216l.122.294a3.668,3.668,0,0,1,.612-.216,2.576,2.576,0,0,1,.622-.073,1.038,1.038,0,0,1,.754.25,1.122,1.122,0,0,1,.255.833v.279l-.779.034a3.307,3.307,0,0,0-1.489.338.938.938,0,0,0-.519.867,1.022,1.022,0,0,0,.157.573.957.957,0,0,0,.446.358,1.733,1.733,0,0,0,.7.122,2.137,2.137,0,0,0,.681-.093,1.368,1.368,0,0,0,.47-.265,1.5,1.5,0,0,0,.328-.377h.025l.069.666h.3V213.9A1.34,1.34,0,0,0,453.112,212.882Zm-.049,2.008a1.292,1.292,0,0,1-.367.975,1.451,1.451,0,0,1-1.058.363,1.1,1.1,0,0,1-.691-.2.657.657,0,0,1-.25-.554.717.717,0,0,1,.416-.676,2.8,2.8,0,0,1,1.215-.26l.735-.029Z" transform="translate(-409.576 -210.948)" fill="#fff"/>
      <path id="Path_268" data-name="Path 268" d="M461.583,214.9a1.43,1.43,0,0,0-.495-.328c-.211-.083-.436-.162-.681-.24s-.441-.147-.612-.206a1.074,1.074,0,0,1-.4-.235.535.535,0,0,1-.137-.382.526.526,0,0,1,.289-.485,1.608,1.608,0,0,1,.8-.167,3.027,3.027,0,0,1,.627.064,2.638,2.638,0,0,1,.554.167l.137-.3a3.143,3.143,0,0,0-.593-.167,3.517,3.517,0,0,0-.705-.069,2.007,2.007,0,0,0-1.087.26.809.809,0,0,0-.407.715.794.794,0,0,0,.171.534,1.15,1.15,0,0,0,.47.313c.2.078.426.157.686.235s.456.152.632.225a1.158,1.158,0,0,1,.4.255.529.529,0,0,1,.142.382.639.639,0,0,1-.284.549,1.69,1.69,0,0,1-.936.2,3.224,3.224,0,0,1-.725-.083,3.4,3.4,0,0,1-.642-.211v.353a3.041,3.041,0,0,0,.578.171,3.777,3.777,0,0,0,.779.069,2.726,2.726,0,0,0,.887-.122,1.157,1.157,0,0,0,.549-.367.932.932,0,0,0,.186-.583A.77.77,0,0,0,461.583,214.9Z" transform="translate(-413.917 -210.937)" fill="#fff"/>
      <path id="Path_269" data-name="Path 269" d="M468.839,212.7l-1.009,2.444c-.083.206-.157.4-.22.568s-.118.309-.157.416h-.02c-.024-.083-.054-.171-.088-.274s-.078-.211-.127-.328-.1-.255-.167-.4l-1.019-2.43h-.411l1.631,3.806-.284.676a1.835,1.835,0,0,1-.24.441.784.784,0,0,1-.289.255.809.809,0,0,1-.377.083,1.137,1.137,0,0,1-.235-.02c-.073-.015-.142-.029-.206-.049v.309a1.523,1.523,0,0,0,.225.049,1.346,1.346,0,0,0,.255.02,1.172,1.172,0,0,0,.544-.118,1.131,1.131,0,0,0,.387-.348,2.7,2.7,0,0,0,.309-.558l1.915-4.546Z" transform="translate(-417.402 -211.014)" fill="#fff"/>
    </g>
    <g id="Group_67090" data-name="Group 67090" transform="translate(220.342 159.526)">
      <g id="Group_67086" data-name="Group 67086" transform="translate(13.329)">
        <path id="Path_270" data-name="Path 270" d="M253.211,163.539a1.875,1.875,0,0,0-1.95,1.876,1.91,1.91,0,0,0,1.871,1.891,1.884,1.884,0,0,0,.078-3.767Z" transform="translate(-249.445 -161.573)" fill="#fff"/>
        <g id="Group_67085" data-name="Group 67085">
          <g id="Group_67081" data-name="Group 67081" transform="translate(3.317)">
            <path id="Path_271" data-name="Path 271" d="M254.9,161.362v.63a.288.288,0,1,1-.577,0v-.63Z" transform="translate(-254.324 -160.463)" fill="#fff"/>
            <path id="Path_272" data-name="Path 272" d="M254.9,159.814v.611h-.577v-.611a.288.288,0,0,1,.577,0Z" transform="translate(-254.324 -159.526)" fill="#fff"/>
          </g>
          <path id="Path_273" data-name="Path 273" d="M259.246,163.59l-.472.418a.288.288,0,0,1-.382-.432l.472-.418Z" transform="translate(-253.033 -161.379)" fill="#fff"/>
          <path id="Path_274" data-name="Path 274" d="M260.3,162.687l-.457.405-.382-.432.457-.405a.288.288,0,0,1,.382.432Z" transform="translate(-253.625 -160.881)" fill="#fff"/>
          <path id="Path_275" data-name="Path 275" d="M260.056,168.6l-.617-.129a.288.288,0,1,1,.119-.564l.617.129Z" transform="translate(-253.5 -163.799)" fill="#fff"/>
          <path id="Path_276" data-name="Path 276" d="M261.535,168.868l-.6-.126.119-.564.6.126a.288.288,0,0,1-.119.564Z" transform="translate(-254.381 -163.94)" fill="#fff"/>
          <path id="Path_277" data-name="Path 277" d="M257.128,172.111l-.336-.533a.288.288,0,0,1,.488-.307l.336.533Z" transform="translate(-252.244 -165.449)" fill="#fff"/>
          <path id="Path_278" data-name="Path 278" d="M257.85,173.324l-.326-.517.488-.307.326.517a.288.288,0,0,1-.488.307Z" transform="translate(-252.64 -166.145)" fill="#fff"/>
          <g id="Group_67082" data-name="Group 67082" transform="translate(0.515 1.49)">
            <path id="Path_279" data-name="Path 279" d="M249.219,163.466l-.5-.381a.288.288,0,1,1,.349-.459l.5.381Z" transform="translate(-248.603 -162.567)" fill="#fff"/>
            <path id="Path_280" data-name="Path 280" d="M250.346,164.294l-.486-.37.349-.459.486.37a.288.288,0,0,1-.349.459Z" transform="translate(-249.244 -163.025)" fill="#fff"/>
          </g>
          <path id="Path_281" data-name="Path 281" d="M252.356,172.88l-.294.557a.288.288,0,1,1-.509-.269l.294-.557Z" transform="translate(-249.576 -166.201)" fill="#fff"/>
          <path id="Path_282" data-name="Path 282" d="M252.982,171.618l-.286.54-.51-.269.286-.54a.288.288,0,0,1,.51.269Z" transform="translate(-249.917 -165.479)" fill="#fff"/>
          <g id="Group_67083" data-name="Group 67083" transform="translate(0 4.238)">
            <path id="Path_283" data-name="Path 283" d="M248.516,169.011l-.617.129a.288.288,0,1,1-.118-.564l.617-.129Z" transform="translate(-247.553 -168.315)" fill="#fff"/>
            <path id="Path_284" data-name="Path 284" d="M250,168.749l-.6.125-.118-.564.6-.125a.288.288,0,0,1,.118.564Z" transform="translate(-248.434 -168.179)" fill="#fff"/>
          </g>
          <g id="Group_67084" data-name="Group 67084" transform="translate(1.941 5.714)">
            <path id="Path_285" data-name="Path 285" d="M252.356,172.874l-.3.556a.288.288,0,1,1-.508-.272l.3-.556Z" transform="translate(-251.516 -171.911)" fill="#fff"/>
            <path id="Path_286" data-name="Path 286" d="M252.988,171.615l-.288.539-.508-.272.288-.539a.288.288,0,0,1,.53.052A.285.285,0,0,1,252.988,171.615Z" transform="translate(-251.861 -171.191)" fill="#fff"/>
          </g>
        </g>
      </g>
      <g id="Group_67087" data-name="Group 67087" transform="translate(5.3 8.745)">
        <path id="Path_287" data-name="Path 287" d="M259.809,187.308c-.235-2.841,7.588-4.056,7.588-4.056a2.854,2.854,0,0,1-.6-.113,6.926,6.926,0,0,0-1.685-.01,11.047,11.047,0,0,0-2.753.784,5.393,5.393,0,0,1-2.655.637c-1.279-.167-2.038-1.474-2.327-2.616-.206-.8-.2-1.621-.333-2.43a11.69,11.69,0,0,0-.211-1.156,6.023,6.023,0,0,1-.343-.95c-.044,1.225-.069,2.454-.083,3.679-.029,2.258-.02,4.565-.162,6.838-.122,2.062-.5,4.144.039,6.187a6.04,6.04,0,0,0,.862,1.905c.039.064.088.122.132.186,0,0-.015-.1-.034-.284a16.157,16.157,0,0,1,.387-6.084c.882-2.528,1.445,3.346,6.383,2.875A5.983,5.983,0,0,1,259.809,187.308Zm.078-5.795a1.207,1.207,0,1,0,1.2,1.2A1.2,1.2,0,0,0,259.888,181.514Z" transform="translate(-243.836 -177.389)" fill="#fff"/>
        <path id="Path_288" data-name="Path 288" d="M242.3,187.906c-.137-2.273-.127-4.58-.157-6.838-.015-1.229-.039-2.459-.083-3.688a5.692,5.692,0,0,1-.348.96c-.093.382-.147.769-.211,1.156-.127.808-.122,1.631-.328,2.43-.289,1.141-1.053,2.449-2.327,2.616a5.381,5.381,0,0,1-2.655-.637,11.046,11.046,0,0,0-2.753-.784,6.926,6.926,0,0,0-1.685.01,2.854,2.854,0,0,1-.6.113s7.823,1.215,7.588,4.056a5.983,5.983,0,0,1-4.208,5.393c4.933.47,5.5-5.4,6.378-2.875a16.071,16.071,0,0,1,.382,6.152c-.015.137-.024.216-.024.216.034-.044.069-.093.1-.137a6.157,6.157,0,0,0,.892-1.954C242.809,192.05,242.432,189.968,242.3,187.906Zm-3.635-6.4a1.207,1.207,0,1,0,1.205,1.205A1.208,1.208,0,0,0,238.67,181.5Z" transform="translate(-231.161 -177.379)" fill="#fff"/>
      </g>
      <g id="Group_67088" data-name="Group 67088" transform="translate(12.7 26.07)">
        <path id="Path_289" data-name="Path 289" d="M246.683,214.633a1.159,1.159,0,0,1-.148-1.619h0a1.159,1.159,0,0,1,1.619.148l1.988,1.988-1.471,1.471Z" transform="translate(-246.269 -212.748)" fill="#fff"/>
        <path id="Path_290" data-name="Path 290" d="M259.54,214.633l-1.988,1.988-1.471-1.471,1.988-1.988a1.16,1.16,0,0,1,1.619-.148h0A1.16,1.16,0,0,1,259.54,214.633Z" transform="translate(-251.275 -212.748)" fill="#fff"/>
      </g>
      <circle id="Ellipse_68" data-name="Ellipse 68" cx="0.294" cy="0.294" r="0.294" transform="translate(16.146 29.467)" fill="#fff"/>
      <circle id="Ellipse_69" data-name="Ellipse 69" cx="0.076" cy="0.076" r="0.076" transform="translate(16.498 28.993)" fill="#fff"/>
      <circle id="Ellipse_70" data-name="Ellipse 70" cx="0.142" cy="0.142" r="0.142" transform="translate(15.795 30.615)" fill="#fff"/>
      <circle id="Ellipse_71" data-name="Ellipse 71" cx="0.209" cy="0.209" r="0.209" transform="translate(16.365 30.482)" fill="#fff"/>
      <circle id="Ellipse_72" data-name="Ellipse 72" cx="0.066" cy="0.066" r="0.066" transform="translate(16.905 31.317)" fill="#fff"/>
      <circle id="Ellipse_73" data-name="Ellipse 73" cx="0.166" cy="0.166" r="0.166" transform="translate(16.872 30.677)" fill="#fff"/>
      <circle id="Ellipse_74" data-name="Ellipse 74" cx="0.133" cy="0.133" r="0.133" transform="translate(16.772 32.01)" fill="#fff"/>
      <circle id="Ellipse_75" data-name="Ellipse 75" cx="0.114" cy="0.114" r="0.114" transform="translate(16.137 31.402)" fill="#fff"/>
      <circle id="Ellipse_76" data-name="Ellipse 76" cx="0.133" cy="0.133" r="0.133" transform="translate(16.307 31.07)" fill="#fff"/>
      <circle id="Ellipse_77" data-name="Ellipse 77" cx="0.247" cy="0.247" r="0.247" transform="translate(15.89 32.105)" fill="#fff"/>
      <circle id="Ellipse_78" data-name="Ellipse 78" cx="0.209" cy="0.209" r="0.209" transform="translate(16.232 31.635)" fill="#fff"/>
      <circle id="Ellipse_79" data-name="Ellipse 79" cx="0.171" cy="0.171" r="0.171" transform="translate(16.478 32.522)" fill="#fff"/>
      <circle id="Ellipse_80" data-name="Ellipse 80" cx="0.247" cy="0.247" r="0.247" transform="translate(15.33 31.07)" fill="#fff"/>
      <circle id="Ellipse_81" data-name="Ellipse 81" cx="0.119" cy="0.119" r="0.119" transform="translate(15.326 30.226)" fill="#fff"/>
      <circle id="Ellipse_82" data-name="Ellipse 82" cx="0.19" cy="0.19" r="0.19" transform="translate(15.605 29.505)" fill="#fff"/>
      <circle id="Ellipse_83" data-name="Ellipse 83" cx="0.043" cy="0.043" r="0.043" transform="translate(16.208 30.259)" fill="#fff"/>
      <circle id="Ellipse_84" data-name="Ellipse 84" cx="0.123" cy="0.123" r="0.123" transform="translate(16.749 29.979)" fill="#fff"/>
      <g id="Group_67089" data-name="Group 67089" transform="translate(16.976 29.021)">
        <circle id="Ellipse_85" data-name="Ellipse 85" cx="0.085" cy="0.085" r="0.085" transform="translate(0.242)" fill="#fff"/>
        <circle id="Ellipse_86" data-name="Ellipse 86" cx="0.266" cy="0.266" r="0.266" transform="translate(0.062 0.275)" fill="#fff"/>
        <circle id="Ellipse_87" data-name="Ellipse 87" cx="0.119" cy="0.119" r="0.119" transform="translate(0.123 1.324)" fill="#fff"/>
        <circle id="Ellipse_88" data-name="Ellipse 88" cx="0.218" cy="0.218" r="0.218" transform="translate(1.029 0.93)" fill="#fff"/>
        <circle id="Ellipse_89" data-name="Ellipse 89" cx="0.109" cy="0.109" r="0.109" transform="translate(0.74 0.337)" fill="#fff"/>
        <circle id="Ellipse_90" data-name="Ellipse 90" cx="0.161" cy="0.161" r="0.161" transform="translate(0.508 1.082)" fill="#fff"/>
        <circle id="Ellipse_91" data-name="Ellipse 91" cx="0.18" cy="0.18" r="0.18" transform="translate(0.65 2.182)" fill="#fff"/>
        <circle id="Ellipse_92" data-name="Ellipse 92" cx="0.166" cy="0.166" r="0.166" transform="translate(0.939 1.656)" fill="#fff"/>
        <circle id="Ellipse_93" data-name="Ellipse 93" cx="0.142" cy="0.142" r="0.142" transform="translate(1.39 1.452)" fill="#fff"/>
        <circle id="Ellipse_94" data-name="Ellipse 94" cx="0.161" cy="0.161" r="0.161" transform="translate(1.684 0.92)" fill="#fff"/>
        <circle id="Ellipse_95" data-name="Ellipse 95" cx="0.079" cy="0.079" r="0.079" transform="translate(0.372 1.8)" fill="#fff"/>
        <circle id="Ellipse_96" data-name="Ellipse 96" cx="0.144" cy="0.144" r="0.144" transform="translate(0.084 2.731)" fill="#fff"/>
        <circle id="Ellipse_97" data-name="Ellipse 97" cx="0.071" cy="0.071" r="0.071" transform="translate(0.598 3.183)" fill="#fff"/>
        <circle id="Ellipse_98" data-name="Ellipse 98" cx="0.052" cy="0.052" r="0.052" transform="translate(1.053 3.506)" fill="#fff"/>
        <circle id="Ellipse_99" data-name="Ellipse 99" cx="0.052" cy="0.052" r="0.052" transform="translate(0.854 2.823)" fill="#fff"/>
        <circle id="Ellipse_100" data-name="Ellipse 100" cx="0.076" cy="0.076" r="0.076" transform="translate(1.238 2.419)" fill="#fff"/>
        <circle id="Ellipse_101" data-name="Ellipse 101" cx="0.195" cy="0.195" r="0.195" transform="translate(1.006 2.733)" fill="#fff"/>
        <circle id="Ellipse_102" data-name="Ellipse 102" cx="0.085" cy="0.085" r="0.085" transform="translate(0.242 2.334)" fill="#fff"/>
        <circle id="Ellipse_103" data-name="Ellipse 103" cx="0.133" cy="0.133" r="0.133" transform="translate(1.456 1.916)" fill="#fff"/>
        <circle id="Ellipse_104" data-name="Ellipse 104" cx="0.228" cy="0.228" r="0.228" transform="translate(0 3.33)" fill="#fff"/>
        <circle id="Ellipse_105" data-name="Ellipse 105" cx="0.123" cy="0.123" r="0.123" transform="translate(0.237 3.995)" fill="#fff"/>
        <circle id="Ellipse_106" data-name="Ellipse 106" cx="0.066" cy="0.066" r="0.066" transform="translate(0.716 3.985)" fill="#fff"/>
        <circle id="Ellipse_107" data-name="Ellipse 107" cx="0.043" cy="0.043" r="0.043" transform="translate(0.697 3.629)" fill="#fff"/>
        <circle id="Ellipse_108" data-name="Ellipse 108" cx="0.19" cy="0.19" r="0.19" transform="translate(0.84 3.805)" fill="#fff"/>
      </g>
      <path id="Path_291" data-name="Path 291" d="M222.848,179.493c.184-7.817,8.278-7.035,10.442-5.36,1.9,1.469,2.238.461,2.067.067a4.292,4.292,0,0,0-.926-1.072c-.088-.079-.172-.162-.255-.246a7.846,7.846,0,0,0-11.437.145,9.084,9.084,0,0,0,0,12.3s3.35,4.079,6.376,7.34,8.266,8.44,8.266,8.44h0v-2.724S222.709,185.371,222.848,179.493Z" transform="translate(-220.342 -165.114)" fill="#fff"/>
      <path id="Path_292" data-name="Path 292" d="M269.663,179.493c-.184-7.817-8.278-7.035-10.442-5.36-1.9,1.469-2.238.461-2.067.067a4.284,4.284,0,0,1,.926-1.072c.088-.079.172-.162.255-.246a7.847,7.847,0,0,1,11.437.145,9.085,9.085,0,0,1,0,12.3s-3.351,4.079-6.376,7.34-8.266,8.44-8.266,8.44h0v-2.724S269.8,185.371,269.663,179.493Z" transform="translate(-238.089 -165.114)" fill="#fff"/>
    </g>
    <circle id="Ellipse_109" data-name="Ellipse 109" cx="1.791" cy="1.791" r="1.791" transform="translate(313.468 167.694)" fill="#fff"/>
    <circle id="Ellipse_110" data-name="Ellipse 110" cx="1.791" cy="1.791" r="1.791" transform="translate(325.699 167.694)" fill="#fff"/>
  </g>
</svg>
